<?xml version="1.0" encoding="UTF-8"?><svg version="1.1" xmlns="http://www.w3.org/2000/svg" xmlns:xlink="http://www.w3.org/1999/xlink" viewBox="0 0 1500 1500" width="1500" height="1500" x="0px" y="0px">
              
              <!-- ITEM 0 -->
<g>
    <defs>
        
        <clipPath id="clip-path-id-viewbox-item-0">
            <rect x="0.0" y="0.0" width="300.0" height="300.0"/>
        </clipPath>
    </defs>
    <g transform="translate(434.0 475.0) rotate(0.0 185.0 185.0) scale(1.2333333333333334 1.2333333333333334)">
        <g clip-path="url(#clip-path-id-viewbox-item-0)" transform="translate(-0.0 -0.0)">

<circle fill="#D6E5FE" cx="150" cy="150" r="150"/>
<path fill="#FFFFFF" d="M186.705,69.125c0-16.792,13.742-30.406,30.699-30.406s30.699,13.614,30.699,30.406  C248.69,68.538,186.705,69.125,186.705,69.125z"/>
<path fill="#A1C3FC" d="M251.974,69.125h-7.75c0-14.764-12.035-26.82-26.82-26.82s-26.82,12.064-26.82,26.82h-7.75  c0-18.821,15.506-34.57,34.57-34.57S251.974,50.305,251.974,69.125z"/>
<path fill="#FFFFFF" d="M195.812,213.383c16.792,0,30.406,13.742,30.406,30.699c0,16.956-13.614,30.699-30.406,30.699  C195.812,274.781,195.871,213.324,195.812,213.383z"/>
<path fill="#A1C3FC" d="M195.812,278.644v-7.75c14.764,0,26.82-12.035,26.82-26.82c0-14.792-12.064-26.82-26.82-26.82v-7.75  c18.821,0,34.57,15.506,34.57,34.57C230.382,263.137,214.633,278.644,195.812,278.644z"/>
<path fill="#FFFFFF" d="M45.898,117.694c-16.792,0-29.357,13.774-30.406,30.699c-1.368,22.085,30.023,32.133,30.406,30.699  L45.898,117.694z"/>
<path fill="#A1C3FC" d="M45.898,182.956v-7.75c-14.764,0-26.82-12.035-26.82-26.82s12.064-26.82,26.82-26.82v-7.75  c-18.821,0-34.57,15.506-34.57,34.57C11.328,167.449,27.077,182.956,45.898,182.956z"/>
<g>
	<polygon fill="#A1C3FC" points="237.932,107.581 188.934,107.581 227.946,57.276 235.846,63.404 209.34,97.581 237.932,97.581  "/>
</g>
<g>
	
		<rect x="45.009" y="164.243" transform="matrix(-0.7903 -0.6128 0.6128 -0.7903 -27.4927 372.5362)" fill="#A1C3FC" width="10" height="53.46"/>
</g>
<g>
	<polygon fill="#A1C3FC" points="184.313,236.203 174.313,236.203 174.313,188.098 223.275,188.098 223.275,198.098    184.313,198.098  "/>
</g>
<path id="texture-3_7_-i0" fill="#FFFFFF" d="M169.935,233.982c-0.093-0.321,0.086-0.657,0.407-0.757l0,0  c0.307-0.086,0.629,0.1,0.714,0.407c0,0.007,0.007,0.014,0.007,0.014c0.093,0.336-0.086,0.671-0.407,0.764l0,0  C170.342,234.482,170.028,234.289,169.935,233.982z M183.941,230.032c-0.093-0.321,0.086-0.664,0.414-0.757  c0.321-0.093,0.664,0.086,0.757,0.414c0.093,0.321-0.086,0.664-0.414,0.757l0,0C184.384,230.525,184.048,230.346,183.941,230.032  L183.941,230.032z M177.177,172.628c0.157-0.286,0.521-0.393,0.807-0.236c0.286,0.157,0.393,0.521,0.236,0.807  c-0.157,0.286-0.521,0.393-0.807,0.236l0,0C177.12,173.277,177.013,172.92,177.177,172.628L177.177,172.628z M202.605,186.841  c0.157-0.286,0.521-0.393,0.807-0.236l0,0c0.293,0.171,0.4,0.536,0.257,0.843c-0.186,0.286-0.557,0.379-0.864,0.221  C202.526,187.491,202.433,187.127,202.605,186.841L202.605,186.841z M215.304,193.962c0.157-0.286,0.521-0.393,0.807-0.236l0,0  c0.293,0.171,0.407,0.543,0.257,0.843c-0.157,0.286-0.521,0.393-0.807,0.236l0,0C215.261,194.634,215.154,194.262,215.304,193.962  L215.304,193.962z M225.282,135.122c-0.093-0.321,0.086-0.664,0.414-0.757l0,0c0.293-0.093,0.607,0.064,0.7,0.35  c0.007,0.021,0.014,0.05,0.014,0.079c0.1,0.307-0.064,0.636-0.371,0.736C225.718,135.629,225.375,135.451,225.282,135.122  L225.282,135.122L225.282,135.122z M175.227,204.105c0.036-0.321,0.321-0.55,0.643-0.521c0.321,0.036,0.55,0.321,0.521,0.643  c-0.029,0.321-0.321,0.55-0.643,0.521c-0.307-0.014-0.543-0.279-0.521-0.586C175.22,204.147,175.227,204.126,175.227,204.105  L175.227,204.105z M204.14,207.497c0.05-0.314,0.35-0.529,0.664-0.479c0.321,0.036,0.557,0.314,0.521,0.636  c-0.036,0.321-0.314,0.557-0.636,0.521h-0.007c-0.336-0.036-0.579-0.321-0.543-0.65l0.007-0.014L204.14,207.497z M218.618,209.233  c0.014-0.307,0.279-0.543,0.586-0.521c0.014,0,0.043,0,0.057,0.007c0.329,0.029,0.571,0.321,0.543,0.65c0,0.007,0,0.021-0.007,0.029  c-0.036,0.321-0.321,0.55-0.643,0.521c-0.329-0.036-0.571-0.329-0.543-0.657C218.618,209.247,218.618,209.233,218.618,209.233  L218.618,209.233z M202.14,155.685c-0.186-0.279-0.136-0.65,0.114-0.871c0.264-0.207,0.657-0.164,0.871,0.114  c0.214,0.271,0.164,0.657-0.114,0.871l0,0C202.733,155.985,202.362,155.935,202.14,155.685L202.14,155.685z M211.161,167.113  c-0.193-0.264-0.136-0.636,0.129-0.836l0,0c0.236-0.214,0.6-0.2,0.814,0.036c0.007,0.014,0.021,0.029,0.036,0.043  c0.2,0.271,0.15,0.65-0.114,0.871C211.754,167.413,211.383,167.363,211.161,167.113L211.161,167.113z M112.488,218.754  c0.021-0.621,0.55-1.107,1.171-1.086c0.014,0,0.029,0,0.043,0c0.614,0.029,1.093,0.55,1.064,1.171v0.007  c-0.021,0.629-0.55,1.114-1.171,1.093c-0.014,0-0.029,0-0.043,0c-0.614-0.029-1.093-0.55-1.064-1.171V218.754z M140.05,220.147  c0.036-0.636,0.579-1.121,1.214-1.086c0.636,0.036,1.121,0.579,1.086,1.214l0,0c-0.029,0.614-0.55,1.093-1.171,1.064h-0.007  C140.536,221.304,140.043,220.775,140.05,220.147L140.05,220.147z M167.642,221.518c0.036-0.636,0.579-1.121,1.214-1.086  c0.636,0.036,1.121,0.579,1.086,1.214c-0.036,0.636-0.579,1.121-1.214,1.086c-0.621-0.021-1.107-0.55-1.086-1.171  C167.642,221.547,167.642,221.532,167.642,221.518L167.642,221.518z M135.044,113.18c-0.414-0.479-0.371-1.193,0.1-1.614  c0.436-0.421,1.129-0.414,1.557,0.014c0.014,0.014,0.029,0.029,0.043,0.043c0.414,0.471,0.371,1.193-0.1,1.614  C136.186,113.666,135.472,113.637,135.044,113.18L135.044,113.18L135.044,113.18z M153.536,133.651  c-0.421-0.464-0.393-1.193,0.079-1.621c0.464-0.421,1.193-0.393,1.621,0.079c0.007,0.007,0.014,0.014,0.021,0.021  c0.421,0.457,0.393,1.171-0.064,1.593l0,0C154.7,134.136,153.986,134.108,153.536,133.651L153.536,133.651z M172.078,154.143  c-0.421-0.457-0.393-1.171,0.071-1.586c0.007-0.007,0.021-0.014,0.029-0.029c0.436-0.421,1.129-0.414,1.557,0.014  c0.014,0.014,0.029,0.029,0.043,0.043c0.407,0.486,0.371,1.207-0.079,1.657C173.22,154.657,172.506,154.607,172.078,154.143  L172.078,154.143z M209.119,195.098c-0.421-0.457-0.393-1.164,0.057-1.586c0.457-0.421,1.164-0.393,1.586,0.057  c0.007,0.007,0.021,0.021,0.029,0.029c0.429,0.45,0.4,1.157-0.05,1.578c-0.007,0.007-0.014,0.007-0.021,0.014  C210.254,195.619,209.54,195.569,209.119,195.098L209.119,195.098z M131.908,263.966c-0.207-0.6,0.107-1.25,0.707-1.457  c0.593-0.207,1.25,0.107,1.457,0.707c0,0,0,0.007,0.007,0.014c0.2,0.6-0.121,1.25-0.714,1.457s-1.236-0.1-1.45-0.693  C131.915,263.98,131.908,263.973,131.908,263.966L131.908,263.966z M157.95,254.709c-0.229-0.579,0.05-1.229,0.629-1.457  c0.571-0.229,1.229,0.05,1.457,0.629c0.007,0.029,0.021,0.05,0.029,0.079c0.207,0.579-0.1,1.221-0.686,1.429  C158.792,255.588,158.164,255.288,157.95,254.709z M110.409,166.799c0.286-0.557,0.964-0.779,1.529-0.486  c0.557,0.286,0.779,0.964,0.486,1.529c-0.279,0.543-0.943,0.771-1.493,0.507C110.366,168.049,110.13,167.363,110.409,166.799  L110.409,166.799z M135.351,178.641c0.286-0.557,0.964-0.779,1.529-0.486c0.557,0.286,0.779,0.964,0.486,1.529  c-0.279,0.543-0.943,0.771-1.5,0.5C135.308,179.899,135.079,179.213,135.351,178.641L135.351,178.641z M160.285,190.448  c0.293-0.571,0.993-0.793,1.564-0.5c0.55,0.279,0.786,0.943,0.536,1.507c-0.257,0.586-0.95,0.85-1.536,0.586s-0.85-0.95-0.586-1.536  C160.271,190.491,160.271,190.469,160.285,190.448z M188.141,96.16c-0.2-0.6,0.121-1.25,0.714-1.457  c0.579-0.214,1.214,0.086,1.429,0.664l0.007,0.014c0.236,0.557-0.021,1.2-0.579,1.436c-0.029,0.007-0.05,0.021-0.086,0.036  C189.027,97.045,188.384,96.745,188.141,96.16L188.141,96.16z M197.426,122.18c-0.193-0.6,0.114-1.25,0.693-1.486  c0.6-0.2,1.25,0.121,1.457,0.714c0.207,0.593-0.1,1.236-0.693,1.45c-0.007,0-0.014,0.007-0.021,0.007  c-0.579,0.214-1.214-0.086-1.429-0.664C197.426,122.187,197.426,122.187,197.426,122.18L197.426,122.18z M206.69,148.164  c-0.221-0.564,0.057-1.2,0.621-1.414c0.014-0.007,0.036-0.014,0.05-0.014c0.579-0.229,1.243,0.057,1.471,0.636  c0.007,0.021,0.014,0.036,0.021,0.05c0.207,0.6-0.107,1.25-0.707,1.457s-1.25-0.107-1.457-0.707  C206.697,148.179,206.697,148.172,206.69,148.164z M215.947,174.206c-0.2-0.6,0.121-1.25,0.714-1.457  c0.564-0.214,1.2,0.064,1.414,0.629c0.007,0.014,0.014,0.036,0.014,0.05c0.214,0.586-0.071,1.236-0.657,1.471  C216.833,175.106,216.175,174.799,215.947,174.206L215.947,174.206z M99.445,191.562c0.193-0.521,0.771-0.8,1.3-0.614  s0.8,0.764,0.614,1.3c-0.186,0.529-0.764,0.8-1.3,0.614l0,0C99.538,192.662,99.267,192.091,99.445,191.562L99.445,191.562z   M122.616,199.955c0.193-0.521,0.771-0.8,1.3-0.614c0.536,0.171,0.821,0.743,0.65,1.279s-0.743,0.821-1.279,0.65  c-0.021-0.007-0.036-0.014-0.057-0.021c-0.521-0.171-0.8-0.736-0.629-1.257C122.608,199.983,122.616,199.962,122.616,199.955  L122.616,199.955z M145.836,209.069c-0.129-0.221-0.143-0.486-0.043-0.729c0.193-0.521,0.771-0.8,1.3-0.614  c0.543,0.193,0.829,0.779,0.636,1.321c0,0.007,0,0.007-0.007,0.014c-0.114,0.321-0.379,0.564-0.707,0.65l-0.036,0.021  c-0.186,0.057-0.386,0.036-0.55-0.057C146.143,209.59,145.922,209.354,145.836,209.069L145.836,209.069z M168.963,216.725  c0.2-0.536,0.793-0.807,1.321-0.607c0.536,0.2,0.807,0.793,0.607,1.321c-0.193,0.521-0.771,0.8-1.3,0.614  c-0.543-0.193-0.829-0.779-0.636-1.321C168.963,216.74,168.963,216.733,168.963,216.725L168.963,216.725z M169.456,115.78  c-0.221-0.529,0-1.136,0.514-1.386c0.493-0.236,1.079-0.029,1.314,0.464c0.007,0.014,0.007,0.029,0.014,0.043  c0.25,0.5,0.043,1.114-0.464,1.357c-0.007,0-0.014,0.007-0.021,0.007C170.313,116.487,169.72,116.273,169.456,115.78z   M179.913,138.043c-0.229-0.507,0-1.1,0.5-1.329c0.493-0.236,1.079-0.029,1.314,0.464c0.007,0.014,0.007,0.029,0.014,0.043  c0.25,0.5,0.043,1.114-0.464,1.357c-0.007,0-0.014,0.007-0.021,0.007C180.741,138.801,180.149,138.558,179.913,138.043  L179.913,138.043z M190.377,160.407c-0.25-0.5-0.043-1.114,0.464-1.357c0.007,0,0.014-0.007,0.021-0.007  c0.471-0.243,1.05-0.057,1.293,0.414c0.014,0.029,0.029,0.057,0.043,0.086c0.25,0.5,0.043,1.114-0.464,1.357  c-0.007,0-0.014,0.007-0.021,0.007C191.205,161.121,190.619,160.899,190.377,160.407L190.377,160.407z M200.805,182.691  c-0.221-0.521,0.021-1.121,0.543-1.35c0.5-0.214,1.093,0,1.329,0.5c0.221,0.507,0.014,1.107-0.479,1.364  C201.662,183.434,201.055,183.206,200.805,182.691L200.805,182.691z M211.269,205.047c-0.243-0.507-0.036-1.121,0.471-1.371  c0.507-0.243,1.121-0.029,1.371,0.471v0.007c0.221,0.529,0,1.136-0.514,1.386C212.09,205.747,211.518,205.533,211.269,205.047  L211.269,205.047z M127.715,244.338c-0.029-0.55,0.393-1.021,0.95-1.05c0.014,0,0.029,0,0.05,0c0.536-0.036,0.993,0.364,1.029,0.893  c0,0.021,0.007,0.043,0,0.064c0.043,0.557-0.379,1.043-0.936,1.086c-0.014,0-0.029,0-0.036,0  C128.208,245.338,127.744,244.895,127.715,244.338L127.715,244.338z M201.569,240.989c-0.007-0.564,0.429-1.029,1-1.05  c0.564-0.021,1.036,0.429,1.05,1c0.014,0.564-0.429,1.036-1,1.05C202.055,242.003,201.583,241.553,201.569,240.989z   M134.794,157.228c-0.4-0.393-0.421-1.036-0.036-1.443c0.379-0.414,1.007-0.443,1.421-0.071c0.407,0.386,0.45,1.021,0.093,1.457  C135.879,157.592,135.222,157.614,134.794,157.228z M153.021,173.835c-0.414-0.35-0.464-0.964-0.114-1.379  c0.014-0.014,0.029-0.029,0.036-0.043c0.379-0.414,1.007-0.443,1.421-0.071c0.407,0.386,0.45,1.021,0.093,1.457  C154.071,174.206,153.436,174.22,153.021,173.835z M171.213,190.469c-0.414-0.379-0.443-1.007-0.071-1.421  c0.379-0.414,1.007-0.443,1.421-0.071c0.414,0.379,0.443,1.007,0.071,1.421C172.256,190.812,171.628,190.841,171.213,190.469  L171.213,190.469z M219.568,115.816c-0.036-0.536,0.364-0.993,0.893-1.029c0.021,0,0.043-0.007,0.064,0  c0.557-0.043,1.043,0.379,1.086,0.936v0.036c0,0.557-0.436,1.021-1,1.05c-0.55,0.029-1.021-0.393-1.05-0.95  C219.568,115.844,219.568,115.83,219.568,115.816L219.568,115.816z M220.682,140.45c-0.021-0.564,0.407-1.05,0.971-1.086  c0.571-0.007,1.043,0.443,1.057,1.014c0.007,0.543-0.4,1-0.943,1.05c-0.55,0.043-1.036-0.364-1.086-0.914  C220.682,140.486,220.682,140.472,220.682,140.45L220.682,140.45z M138.386,238.646c0.057-0.329,0.371-0.557,0.7-0.5  s0.557,0.371,0.5,0.7s-0.371,0.557-0.7,0.5l0,0C138.565,239.281,138.343,238.974,138.386,238.646L138.386,238.646z M167.128,243.131  c0.05-0.314,0.35-0.529,0.664-0.479c0.307,0.021,0.543,0.293,0.514,0.6c-0.007,0.029-0.007,0.064-0.014,0.1  c-0.05,0.314-0.35,0.529-0.664,0.479c-0.314-0.029-0.543-0.3-0.514-0.607C167.121,243.188,167.128,243.16,167.128,243.131z   M170.378,186.841c-0.193-0.264-0.136-0.636,0.129-0.836c0.264-0.193,0.636-0.136,0.836,0.129c0.2,0.264,0.136,0.636-0.129,0.836  l0,0C170.942,187.17,170.57,187.113,170.378,186.841L170.378,186.841L170.378,186.841z M204.626,233.825  c-0.193-0.264-0.136-0.636,0.129-0.836l0,0c0.264-0.193,0.643-0.129,0.836,0.136c0.186,0.264,0.129,0.629-0.129,0.821  C205.19,234.146,204.819,234.089,204.626,233.825L204.626,233.825L204.626,233.825z M147.4,269.223  c-0.064-0.314,0.121-0.629,0.429-0.721c0.329-0.064,0.657,0.136,0.743,0.464c0.086,0.307-0.1,0.629-0.407,0.714  c-0.007,0-0.014,0.007-0.021,0.007C147.814,269.744,147.486,269.544,147.4,269.223L147.4,269.223z M161.528,265.816  c-0.079-0.314,0.114-0.636,0.429-0.721c0.3-0.093,0.621,0.079,0.714,0.379c0.007,0.014,0.007,0.029,0.007,0.029  c0.1,0.307-0.064,0.621-0.35,0.721c-0.021,0.007-0.05,0.014-0.079,0.014c-0.307,0.086-0.629-0.1-0.714-0.407  C161.535,265.83,161.535,265.823,161.528,265.816L161.528,265.816z M155.6,213.74c0.186-0.264,0.543-0.35,0.829-0.2  c0.279,0.157,0.379,0.521,0.214,0.8c-0.007,0.014-0.007,0.014-0.021,0.029c-0.15,0.279-0.5,0.379-0.779,0.229  c-0.014-0.007-0.036-0.014-0.036-0.014C155.514,214.39,155.428,214.026,155.6,213.74z M168.035,221.289  c0.186-0.264,0.543-0.35,0.829-0.2c0.279,0.179,0.364,0.543,0.2,0.829c-0.143,0.286-0.493,0.4-0.771,0.25  c-0.014-0.007-0.021-0.014-0.036-0.021c-0.293-0.164-0.4-0.536-0.243-0.829C168.013,221.318,168.028,221.304,168.035,221.289  L168.035,221.289z M180.449,228.903c0.15-0.279,0.5-0.379,0.779-0.229c0.014,0.007,0.036,0.014,0.05,0.029  c0.286,0.179,0.371,0.55,0.2,0.829c-0.186,0.264-0.543,0.35-0.829,0.2c-0.279-0.157-0.379-0.521-0.221-0.8  C180.434,228.918,180.441,228.911,180.449,228.903L180.449,228.903z M200.219,181.041c-0.079-0.321,0.114-0.643,0.429-0.721  c0.321-0.079,0.643,0.114,0.721,0.429l0,0c0.093,0.293-0.064,0.607-0.35,0.7c-0.021,0.007-0.05,0.014-0.079,0.014  c-0.307,0.086-0.629-0.1-0.714-0.407L200.219,181.041L200.219,181.041z M203.633,195.176c-0.071-0.336,0.136-0.664,0.464-0.743  c0.314-0.064,0.614,0.136,0.686,0.443l0,0c0.093,0.293-0.064,0.607-0.35,0.7c-0.021,0.007-0.05,0.014-0.079,0.014  c-0.307,0.086-0.629-0.1-0.714-0.407L203.633,195.176L203.633,195.176z M207.033,209.311c-0.071-0.336,0.136-0.664,0.464-0.743  c0.336-0.071,0.664,0.136,0.736,0.464c0.057,0.343-0.171,0.657-0.514,0.714C207.426,209.797,207.126,209.611,207.033,209.311z   M121.323,233.696c0.114-0.343,0.493-0.529,0.836-0.407c0.007,0,0.014,0,0.014,0c0.357,0.114,0.557,0.486,0.45,0.843  c-0.007,0.014-0.014,0.036-0.021,0.05c-0.114,0.343-0.493,0.529-0.836,0.407c-0.007,0-0.014,0-0.014,0  C121.387,234.446,121.201,234.053,121.323,233.696L121.323,233.696z M136.958,239.196c0.129-0.357,0.529-0.55,0.886-0.421  c0.364,0.129,0.55,0.529,0.421,0.886l0,0c-0.114,0.343-0.493,0.529-0.836,0.407c0,0-0.014,0-0.021-0.007  c-0.357-0.093-0.571-0.457-0.471-0.821C136.943,239.224,136.951,239.21,136.958,239.196L136.958,239.196z M167.913,182.134  c-0.171-0.307-0.05-0.7,0.25-0.864c0.021-0.014,0.05-0.021,0.071-0.036c0.336-0.157,0.743-0.007,0.9,0.329  c0.143,0.35,0.014,0.743-0.307,0.936C168.485,182.648,168.071,182.491,167.913,182.134L167.913,182.134L167.913,182.134z   M175.07,197.105c-0.157-0.35,0.007-0.764,0.357-0.914l0,0c0.336-0.157,0.743-0.007,0.9,0.329c0.143,0.35,0.014,0.743-0.307,0.936  C175.67,197.598,175.256,197.448,175.07,197.105L175.07,197.105z M189.52,227.025c-0.186-0.3-0.093-0.7,0.214-0.886  c0.029-0.014,0.064-0.036,0.093-0.05c0.336-0.157,0.743-0.007,0.9,0.329c0.164,0.343,0.029,0.757-0.307,0.936  C190.077,227.511,189.677,227.361,189.52,227.025L189.52,227.025z M125.301,269.416c-0.036-0.379,0.236-0.714,0.614-0.75  c0.014,0,0.021,0,0.036,0c0.379,0.007,0.686,0.293,0.721,0.671c0.021,0.379-0.264,0.7-0.643,0.721c-0.007,0-0.014,0-0.021,0  C125.637,270.066,125.323,269.787,125.301,269.416L125.301,269.416z M141.858,268.473c-0.014-0.371,0.264-0.679,0.636-0.7  c0.379-0.036,0.714,0.236,0.75,0.614c0,0,0,0.021,0,0.036c0.014,0.386-0.293,0.7-0.679,0.714  C142.2,269.144,141.879,268.851,141.858,268.473z M158.442,267.566c-0.036-0.35,0.221-0.664,0.571-0.693  c0.021-0.007,0.036,0,0.064,0c0.357-0.043,0.686,0.207,0.736,0.564c0,0.014,0,0.029,0.007,0.05c0.036,0.379-0.236,0.714-0.614,0.75  c-0.379,0.036-0.714-0.236-0.75-0.614C158.442,267.602,158.442,267.58,158.442,267.566z M145.836,209.069  c0.029-0.093,0.071-0.186,0.129-0.264c0.243-0.279,0.671-0.3,0.95-0.057c0.007,0.007,0.014,0.007,0.021,0.014  c0.271,0.25,0.3,0.657,0.079,0.943l-0.036,0.021c-0.243,0.279-0.671,0.3-0.95,0.057c-0.007-0.007-0.014-0.014-0.014-0.014  C145.814,209.604,145.743,209.319,145.836,209.069L145.836,209.069z M158.414,220.839c-0.279-0.236-0.321-0.657-0.086-0.943  c0,0,0-0.007,0.007-0.007c0.25-0.286,0.679-0.321,0.986-0.1c0.271,0.271,0.3,0.7,0.064,1  C159.128,221.075,158.692,221.097,158.414,220.839L158.414,220.839z M170.756,231.896c-0.279-0.257-0.3-0.693-0.043-0.964  c0.257-0.279,0.693-0.3,0.964-0.043c0.279,0.257,0.3,0.693,0.043,0.964l0,0c-0.243,0.279-0.671,0.3-0.95,0.057  C170.763,231.91,170.763,231.903,170.756,231.896L170.756,231.896z M202.783,181.306c-0.021-0.379,0.264-0.7,0.643-0.721  c0.007,0,0.014,0,0.021,0c0.371-0.014,0.679,0.264,0.7,0.636c0.043,0.357-0.207,0.686-0.564,0.736c-0.014,0-0.029,0-0.05,0.007  C203.155,181.977,202.819,181.691,202.783,181.306L202.783,181.306z M203.726,197.862c-0.036-0.35,0.221-0.664,0.571-0.693  c0.021-0.007,0.036,0,0.064,0c0.357-0.043,0.686,0.207,0.729,0.564c0,0.014,0,0.029,0.007,0.05c0.029,0.386-0.264,0.721-0.643,0.757  C204.069,198.548,203.74,198.248,203.726,197.862C203.726,197.869,203.726,197.862,203.726,197.862L203.726,197.862z   M204.633,214.44c-0.021-0.379,0.271-0.7,0.643-0.721c0.371-0.021,0.693,0.264,0.721,0.636c0.036,0.379-0.236,0.714-0.614,0.75  c-0.014,0-0.021,0-0.036,0C204.983,215.104,204.669,214.818,204.633,214.44L204.633,214.44z M82.903,171.278  c-0.457-0.464-0.471-1.2-0.036-1.686c0.443-0.479,1.186-0.507,1.657-0.071c0.464,0.457,0.479,1.207,0.036,1.686  C84.125,171.685,83.382,171.713,82.903,171.278z M103.745,190.662c-0.479-0.443-0.507-1.186-0.071-1.657  c0.443-0.479,1.186-0.507,1.657-0.071c0.479,0.443,0.507,1.186,0.071,1.657C104.966,191.077,104.224,191.105,103.745,190.662  L103.745,190.662z M124.544,210.076c-0.464-0.457-0.479-1.207-0.036-1.686c0.457-0.457,1.2-0.457,1.657-0.007  c0.457,0.457,0.457,1.2,0.007,1.657C125.723,210.49,125.008,210.504,124.544,210.076z M166.185,248.881  c-0.464-0.457-0.479-1.207-0.036-1.686c0.45-0.464,1.186-0.479,1.657-0.029c0.457,0.443,0.479,1.171,0.043,1.643  C167.399,249.288,166.663,249.317,166.185,248.881L166.185,248.881z M191.534,120.744c-0.007-0.657,0.507-1.207,1.164-1.243  c0.657,0,1.193,0.529,1.186,1.186c0,0.636-0.493,1.157-1.129,1.186C192.112,121.887,191.569,121.387,191.534,120.744  L191.534,120.744z M192.534,149.179c-0.014-0.643,0.486-1.186,1.129-1.229c0.65-0.029,1.2,0.479,1.229,1.129s-0.479,1.2-1.129,1.229  C193.119,150.321,192.577,149.821,192.534,149.179z M193.541,177.606c-0.014-0.643,0.479-1.193,1.129-1.229  c0.657-0.007,1.207,0.507,1.243,1.164c0,0.657-0.536,1.186-1.193,1.186C194.098,178.734,193.576,178.242,193.541,177.606  L193.541,177.606z M115.616,247.51c0.229-0.614,0.914-0.929,1.529-0.7c0.614,0.229,0.929,0.914,0.7,1.529  c-0.229,0.614-0.914,0.929-1.529,0.7C115.709,248.795,115.402,248.124,115.616,247.51L115.616,247.51z M142.279,257.502  c0.2-0.614,0.864-0.95,1.479-0.75c0.014,0.007,0.021,0.007,0.029,0.007c0.607,0.236,0.914,0.914,0.7,1.529  c-0.221,0.614-0.893,0.936-1.507,0.707c-0.007,0-0.014-0.007-0.014-0.007C142.365,258.773,142.058,258.102,142.279,257.502  L142.279,257.502z M168.956,267.444c0.221-0.614,0.9-0.929,1.514-0.707c0.007,0,0.014,0.007,0.014,0.007  c0.571,0.221,0.85,0.85,0.643,1.421c0.021,0.036,0.021,0.036,0.007,0.093c-0.2,0.564-0.807,0.871-1.386,0.714l-0.114-0.029  c-0.586-0.2-0.907-0.843-0.7-1.436C168.942,267.487,168.949,267.466,168.956,267.444L168.956,267.444z M135.922,148.207  c-0.243-0.6,0.021-1.286,0.593-1.578c0.6-0.243,1.279,0.029,1.543,0.614c0.279,0.579,0.036,1.271-0.543,1.543  c-0.007,0-0.014,0.007-0.021,0.007C136.901,149.071,136.201,148.807,135.922,148.207L135.922,148.207L135.922,148.207z   M147.75,174.12c-0.271-0.6-0.007-1.3,0.593-1.579l0,0c0.579-0.264,1.257,0,1.521,0.579l0,0c0.279,0.586,0.036,1.279-0.55,1.557  c-0.586,0.279-1.279,0.036-1.557-0.55C147.757,174.127,147.75,174.127,147.75,174.12z M159.557,199.998  c-0.279-0.579-0.036-1.271,0.536-1.543c0.007,0,0.014-0.007,0.021-0.007c0.586-0.286,1.3-0.05,1.593,0.543  c0.286,0.586,0.05,1.3-0.543,1.593c-0.586,0.286-1.3,0.05-1.593-0.543C159.571,200.033,159.557,200.012,159.557,199.998z   M171.363,225.875c-0.257-0.593,0.021-1.286,0.614-1.536c0.579-0.25,1.25,0.007,1.521,0.579c0.271,0.579,0.021,1.279-0.557,1.557  C172.342,226.739,171.635,226.475,171.363,225.875L171.363,225.875L171.363,225.875z M119.851,267.773  c0.221-0.6,0.871-0.936,1.493-0.771c0.614,0.221,0.936,0.893,0.736,1.507c-0.171,0.6-0.793,0.943-1.393,0.771  c-0.021-0.007-0.043-0.014-0.057-0.021c-0.621-0.193-0.971-0.843-0.779-1.464C119.851,267.787,119.851,267.78,119.851,267.773  L119.851,267.773z M116.709,151.643c-0.279-0.579-0.021-1.279,0.557-1.557c0.579-0.279,1.279-0.021,1.557,0.557  c0.264,0.564,0.036,1.243-0.521,1.536C117.709,152.471,117.002,152.228,116.709,151.643L116.709,151.643z M129.537,176.927  c-0.286-0.586-0.05-1.3,0.543-1.593c0.571-0.271,1.264-0.05,1.571,0.507c0.279,0.593,0.05,1.307-0.514,1.628  C130.537,177.742,129.837,177.499,129.537,176.927L129.537,176.927z M142.365,202.205c-0.286-0.586-0.05-1.3,0.543-1.593  c0.571-0.293,1.279-0.071,1.571,0.507c0.293,0.571,0.071,1.279-0.507,1.571l0,0C143.393,202.983,142.686,202.776,142.365,202.205  L142.365,202.205z M155.228,227.468c-0.307-0.55-0.107-1.229,0.443-1.536c0.021-0.014,0.043-0.021,0.064-0.036  c0.571-0.293,1.271-0.064,1.571,0.507c0.293,0.571,0.064,1.271-0.507,1.564C156.221,228.261,155.521,228.039,155.228,227.468  L155.228,227.468z M218.011,195.448c0.221-0.614,0.893-0.936,1.507-0.736c0.6,0.207,0.921,0.871,0.714,1.471  c-0.171,0.6-0.793,0.943-1.393,0.771c-0.021-0.007-0.043-0.014-0.057-0.021c-0.621-0.193-0.971-0.843-0.779-1.464  C218.011,195.469,218.011,195.462,218.011,195.448L218.011,195.448z M101.567,218.918c-0.486-0.421-0.529-1.15-0.114-1.636  c0,0,0-0.007,0.007-0.007c0.414-0.5,1.15-0.571,1.65-0.157c0.486,0.436,0.543,1.179,0.129,1.678  C102.809,219.275,102.074,219.332,101.567,218.918L101.567,218.918z M123.137,237.36c-0.493-0.414-0.557-1.15-0.143-1.65  c0.414-0.493,1.15-0.557,1.65-0.143c0.007,0,0.007,0.007,0.014,0.014c0.479,0.436,0.536,1.171,0.129,1.678  c-0.421,0.486-1.15,0.529-1.636,0.114L123.137,237.36L123.137,237.36z M144.643,255.795c-0.486-0.443-0.514-1.193-0.071-1.686  c0.421-0.464,1.136-0.514,1.621-0.121c0.5,0.429,0.55,1.179,0.129,1.678C145.893,256.174,145.136,256.224,144.643,255.795z   M175.956,149.757c-0.036-0.65,0.457-1.214,1.107-1.264c0.636-0.043,1.193,0.436,1.236,1.071c0.071,0.629-0.371,1.193-1.007,1.271  c-0.014,0-0.036,0.007-0.05,0.007c-0.65,0.071-1.229-0.407-1.293-1.05c0-0.014,0-0.029,0-0.029v-0.007h0.007V149.757z   M178.142,178.02c-0.036-0.65,0.457-1.214,1.107-1.264c0.643-0.043,1.193,0.436,1.236,1.071c0.071,0.629-0.371,1.193-1.007,1.271  c-0.014,0-0.036,0.007-0.05,0.007c-0.65,0.064-1.229-0.407-1.293-1.05c0-0.007,0-0.021,0-0.021v-0.014L178.142,178.02  L178.142,178.02z M182.513,234.553c-0.029-0.65,0.464-1.207,1.107-1.264c0.643-0.043,1.193,0.436,1.236,1.071  c0.036,0.636-0.429,1.193-1.05,1.271c-0.657,0.057-1.236-0.421-1.293-1.071C182.513,234.567,182.506,234.56,182.513,234.553  L182.513,234.553z M131.444,275.908c0.25-0.429,0.793-0.579,1.221-0.329c0.429,0.243,0.579,0.793,0.329,1.221  c-0.236,0.414-0.764,0.557-1.179,0.321c-0.007,0-0.007,0-0.014-0.007C131.387,276.873,131.229,276.344,131.444,275.908  L131.444,275.908z M147.372,189.791c-0.129-0.471,0.157-0.957,0.629-1.079c0.464-0.121,0.943,0.15,1.079,0.607  c0.136,0.45-0.107,0.921-0.557,1.064c-0.029,0.007-0.057,0.014-0.086,0.021C147.979,190.52,147.507,190.248,147.372,189.791  L147.372,189.791z M152.857,210.411c-0.121-0.471,0.171-0.964,0.643-1.086c0.479-0.121,0.964,0.171,1.086,0.643l0,0  c0.129,0.471-0.15,0.95-0.614,1.079c-0.014,0.007-0.021,0.007-0.029,0.007C153.471,211.176,152.993,210.89,152.857,210.411  L152.857,210.411z M158.364,231.075c-0.121-0.471,0.171-0.964,0.643-1.086c0.471-0.121,0.964,0.171,1.086,0.643  s-0.171,0.964-0.643,1.086l0,0C158.971,231.832,158.5,231.546,158.364,231.075L158.364,231.075z M113.023,219.432  c-0.286-0.393-0.207-0.943,0.179-1.236c0.4-0.264,0.929-0.193,1.236,0.179c0.293,0.386,0.214,0.936-0.171,1.236c0,0,0,0-0.007,0.007  c-0.364,0.293-0.907,0.236-1.2-0.129C113.052,219.468,113.037,219.447,113.023,219.432z M126.001,236.446  c-0.293-0.4-0.221-0.957,0.157-1.271c0.386-0.293,0.936-0.214,1.236,0.171l0,0c0.3,0.364,0.25,0.907-0.114,1.2  c-0.007,0.007-0.021,0.014-0.029,0.021c-0.379,0.314-0.929,0.264-1.243-0.114L126.001,236.446L126.001,236.446z M139.001,253.409  c-0.293-0.364-0.236-0.907,0.129-1.2c0.021-0.014,0.036-0.029,0.05-0.036c0.357-0.3,0.886-0.25,1.186,0.107  c0.007,0.014,0.021,0.021,0.029,0.036c0.293,0.4,0.221,0.957-0.157,1.271c-0.386,0.293-0.936,0.214-1.236-0.171v-0.007H139.001z   M188.87,218.282c0.086-0.493,0.55-0.829,1.036-0.743c0.471,0.079,0.793,0.507,0.75,0.979c-0.064,0.493-0.514,0.843-1.014,0.779  C189.148,219.225,188.805,218.775,188.87,218.282z M137.872,259.838c-0.129-0.236-0.05-0.536,0.179-0.671  c0.236-0.136,0.536-0.057,0.671,0.179c0.136,0.236,0.057,0.536-0.179,0.671c-0.014,0.007-0.021,0.014-0.036,0.021  C138.272,260.145,138.001,260.052,137.872,259.838L137.872,259.838z M143.372,270.101c-0.121-0.221-0.036-0.507,0.186-0.629  c0,0,0.007,0,0.014-0.007c0.207-0.129,0.479-0.064,0.6,0.143c0.014,0.021,0.021,0.043,0.036,0.057  c0.136,0.221,0.079,0.514-0.143,0.65c-0.007,0.007-0.021,0.014-0.036,0.014C143.786,270.423,143.5,270.33,143.372,270.101  L143.372,270.101z M162.235,258.502c-0.036-0.257,0.15-0.486,0.407-0.521c0.271-0.029,0.514,0.164,0.543,0.436l0,0  c0.036,0.25-0.136,0.486-0.393,0.521c0,0-0.007,0-0.014,0C162.507,258.973,162.264,258.773,162.235,258.502L162.235,258.502  L162.235,258.502z M163.378,270.13c-0.029-0.271,0.164-0.514,0.436-0.543l0,0c0.271-0.029,0.514,0.164,0.543,0.436  s-0.164,0.514-0.436,0.543l0,0C163.649,270.594,163.407,270.394,163.378,270.13L163.378,270.13L163.378,270.13z M136.993,236.574  c-0.036-0.436,0.293-0.821,0.736-0.857l0,0c0.4-0.057,0.771,0.221,0.821,0.614c0,0.029,0.007,0.05,0.007,0.079  c0.071,0.407-0.207,0.793-0.614,0.857c-0.021,0.007-0.043,0.007-0.064,0.007c-0.421,0.064-0.821-0.229-0.879-0.657  C136.993,236.61,136.993,236.596,136.993,236.574L136.993,236.574z M139.022,255.809c-0.071-0.407,0.207-0.793,0.614-0.857  c0.021-0.007,0.043-0.007,0.064-0.007c0.421-0.064,0.821,0.229,0.879,0.657c0,0,0.007,0.036,0.007,0.057  c0.043,0.436-0.271,0.836-0.707,0.886c-0.421,0.043-0.807-0.264-0.85-0.686c0-0.014,0-0.029,0-0.029L139.022,255.809z M141,275.023  c-0.036-0.436,0.279-0.829,0.707-0.886c0.429-0.057,0.829,0.25,0.886,0.679c0,0,0.007,0.021,0,0.029  c0.043,0.436-0.271,0.836-0.707,0.886C141.45,275.773,141.058,275.465,141,275.023L141,275.023z M169.749,268.966  c-0.107-0.186-0.136-0.407-0.071-0.621c0.136-0.421,0.579-0.657,1.007-0.543c0.179,0.071,0.336,0.193,0.443,0.357  c0.021,0.036,0.021,0.036,0.007,0.093c0.114,0.164,0.143,0.371,0.093,0.564c-0.136,0.421-0.579,0.657-1.007,0.543  C170.02,269.28,169.856,269.144,169.749,268.966L169.749,268.966z"/>
<g>
	<path fill="#D62929" d="M151.843,149.921c-1.714-1.093-3.486-2.221-5.214-3.436c-18.735-13.107-30.977-35.434-31.956-58.276   c-0.979-22.842,9.314-46.134,26.856-60.79l2.75,3.293c-16.542,13.821-26.249,35.784-25.327,57.319s12.464,42.591,30.127,54.947   c1.657,1.157,3.393,2.264,5.064,3.336L151.843,149.921z"/>
</g>
<polygon fill="#23286B" points="140.086,48.855 158.992,16.571 119.98,32.213 138.865,33.398 "/>
<polygon fill="#23286B" points="198.541,149.214 247.003,151.65 205.662,116.123 215.59,138.558 "/>
<g>
	<path fill="#23286B" d="M148.843,158.5c-0.707,0-1.407-0.257-1.957-0.779c-1.15-1.086-1.2-2.893-0.121-4.036   c20.949-22.199,56.833-27.713,83.482-12.835c1.379,0.771,1.871,2.507,1.1,3.886s-2.507,1.871-3.886,1.1   c-24.027-13.421-57.647-8.25-76.539,11.771C150.357,158.2,149.6,158.5,148.843,158.5z"/>
</g>
<circle fill="#D62929" cx="150" cy="150" r="11.207"/>

        </g>
    </g>
</g>

<!-- ITEM 1 -->
<g>
    <defs>
        
        <clipPath id="clip-path-id-viewbox-item-1">
            <rect x="0.0" y="0.0" width="200.0" height="110.0"/>
        </clipPath>
    </defs>
    <g transform="translate(39.0 976.0) rotate(0.0 289.5 159.5) scale(2.895 2.9)">
        <g clip-path="url(#clip-path-id-viewbox-item-1)" transform="translate(-0.0 -0.0)">

<rect x="104.412" y="102.483" fill="#89B3F4" width="95.588" height="7.506"/>
<polygon fill="#89B3F4" points="129.342,103.679 57.523,106.899 6.762,0.132 78.521,0 "/>
<polygon fill="#A1C3FC" points="58.192,106.779 51.399,110 0,3.221 6.793,0 "/>
<rect x="51.428" y="102.483" fill="#A1C3FC" width="95.159" height="7.506"/>
<polygon fill="#1C2868" points="119.193,92.881 56.158,93.134 14.877,7.033 77.122,6.92 "/>
<rect x="42.077" y="16.451" fill="#56598D" width="9.08" height="9.062"/>
<rect x="40.554" y="18.73" fill="#888BAF" width="2.484" height="2.479"/>
<rect x="80.805" y="60.118" fill="#E94A47" width="4.914" height="4.904"/>
<rect x="86.087" y="65.796" fill="#1D72D8" width="4.914" height="4.904"/>
<rect x="154.696" y="103.637" fill="#1D72D8" width="10.85" height="4.88"/>
<rect x="169.396" y="103.637" fill="#1D72D8" width="7.494" height="4.88"/>

        </g>
    </g>
</g>

<!-- ITEM 2 -->
<g>
    <defs>
        
        <clipPath id="clip-path-id-viewbox-item-2">
            <rect x="0.0" y="0.0" width="400.0" height="351.0"/>
        </clipPath>
    </defs>
    <g transform="translate(682.0 578.0) rotate(0.0 409.0 358.5) scale(2.045 2.0427350427350426)">
        <g clip-path="url(#clip-path-id-viewbox-item-2)" transform="translate(-0.0 -0.0)">

<path fill="#1D72D8" d="M291.478,83.353c-1.006-0.575-1.181,1.655-1.353,2.678c-1.151,6.823-2.099,13.783-4.892,20.114  c-0.555,1.257-1.184,2.702-0.593,3.942c0.225,0.47,0.602,0.844,0.966,1.216c3.605,3.694,7.492,6.349,9.406,11.143  c1.506-4.781,2.846-8.573,3.608-13.528c0.902-5.865,1.271-7.596,1.443-13.528c0.033-1.137-0.861-5.518-1.29-6.571  C298.341,87.767,293.34,84.609,291.478,83.353z"/>
<linearGradient id="SVGID_1_-i2" gradientUnits="userSpaceOnUse" x1="4916.5962" y1="2123.1924" x2="4504.8916" y2="2152.5334" gradientTransform="matrix(0.1 0 0 0.1 -179.1 -131.1)">
	<stop offset="0" style="stop-color:#FFBEB6"/>
	<stop offset="1" style="stop-color:#F2A19C"/>
</linearGradient>
<path fill="url(#SVGID_1_-i2)" d="M292.04,103.153c4.771-2.006,8.922-6.811,8.053-11.914c-0.123-0.722-0.358-1.457-0.869-1.981  c-0.581-0.596-1.426-0.835-2.226-1.069c-13.353-3.893-25.23-12.649-32.896-24.254c-2.438,8.062-4.169,16.336-5.167,24.7  c1.877,2.372,5.187,2.879,8.116,3.639c7.923,2.056,14.717,7.016,22.01,10.733c0.471,0.24,0.963,0.48,1.491,0.505  C291.064,103.537,291.565,103.352,292.04,103.153z"/>
<linearGradient id="SVGID_2_-i2" gradientUnits="userSpaceOnUse" x1="4514.4775" y1="2140.5078" x2="4003.543" y2="2143.9521" gradientTransform="matrix(0.1 0 0 0.1 -179.1 -131.1)">
	<stop offset="0" style="stop-color:#FFBEB6"/>
	<stop offset="1" style="stop-color:#F2A19C"/>
</linearGradient>
<path fill="url(#SVGID_2_-i2)" d="M279.614,78.351c-0.295-7.497-2.253-15.668-8.33-20.069c-3.857-2.793-8.873-3.619-13.614-3.169  c-4.742,0.451-9.286,2.074-13.722,3.806c-5.914,2.31-12.316,5.414-14.569,11.35c-1.514,3.991-0.786,8.487,0.55,12.541  c2.454,7.447,6.98,14.284,13.234,19.014c1.64,1.24,3.404,2.325,5.251,3.241c2.024,2.24,2.837,2.867,4.986,5.255  c1.965,2.183,2.555-0.69,3.321-2.456c2.799,0.527,5.664,0.669,8.502,0.36c2.818-0.307,5.68-1.086,7.88-2.874  c3.14-2.552,4.438-6.708,5.228-10.675C279.396,89.309,279.828,83.817,279.614,78.351z"/>
<path fill="#89B3F4" d="M298.586,151.546c-1.393-8.847-4.061-25.438-3.099-34.342c0.962-8.904,4.083-10.404,11.094-15.978  c3.944-3.136,10.051-4.885,13.798-1.517c2.623,2.358,5.646,8.035,5.84,11.557c1.946,35.197,8.598,65.955-5.227,103.83  c-4.339,0.265-8.746-0.707-12.571-2.773c-0.647-0.35-1.294-0.744-1.742-1.328c-0.593-0.774-0.762-1.782-0.914-2.745  c-2.001-12.713-2.724-22.168-4.725-34.881C300.059,167.132,299.568,157.779,298.586,151.546z"/>
<linearGradient id="SVGID_3_-i2" gradientUnits="userSpaceOnUse" x1="4510.8901" y1="3067.0725" x2="4030.4929" y2="3061.7288" gradientTransform="matrix(0.1 0 0 0.1 -179.1 -131.1)">
	<stop offset="0" style="stop-color:#FFBEB6"/>
	<stop offset="1" style="stop-color:#F2A19C"/>
</linearGradient>
<path fill="url(#SVGID_3_-i2)" d="M212.631,157.499c3.028-3.158,24.019-4.613,34.799-3.551c4.719,0.465,9.542-0.399,14.194,0.524  c4.719,0.935,8.875,3.628,12.9,6.265c7.874,5.16,12.012,16.134,19.886,21.293c2.93,1.92,9.561,12.264,12.989,12.987  c-1.841,5.467-18.363-3.062-20.204,2.406c-8.992-11.491-11.753-13.207-21.361-24.191c-3.017-3.45-5.242-7.821-9.26-10.026  c-2.719-1.492-5.905-1.781-8.967-2.271C236.002,159.078,207.652,162.691,212.631,157.499z"/>
<path fill="#89B3F4" d="M298.912,207.765c3.163,3.528,6.372,7.096,10.325,9.708c3.953,2.612,7.944,0.562,11.818-2.665  c2.97-10.974-5.66-18.63-15.157-27.317c-9.497-8.687-22.032-18.199-29.221-25.171c-0.72,4.825-5.449,10.232-9.995,12.001  C277.578,188.012,288.593,196.256,298.912,207.765z"/>
<path fill="#F7931E" d="M79.98,318.151c10.186-1.949,46.18-0.006,46.18-0.006s4.044,19.725,3.942,32.712  c-15.192,0.02-30.384,0.041-45.576,0.061c-25.533,0.034-31.572,0.275-58.531-0.275c-0.574-6.059,11.515-17.188,33.553-22.386  C64.418,327.11,75.065,319.092,79.98,318.151z"/>
<path fill="#FBB03B" d="M54.004,318.151c10.186-1.949,46.18-0.006,46.18-0.006s4.044,19.725,3.942,32.712  c-15.192,0.02-30.384,0.041-45.576,0.061c-25.533,0.034-31.572,0.275-58.531-0.275c-0.574-6.059,11.515-17.188,33.553-22.386  C38.442,327.11,49.088,319.092,54.004,318.151z"/>
<path fill="#151A4F" d="M202.759,232.999c30.418,16.67,54.742,44.718,87.929,54.806c24.9,7.568,52.951,3.639,75.078-10.059  c11.391-7.051,21.7-17.346,24.556-30.433c0.284-1.3,0.485-2.69,0.01-3.932c-0.581-1.521-2.041-2.497-3.424-3.36  c-11.176-6.974-22.849-13.153-34.899-18.475c-6.024,2.027-7.589,10.989-13.712,12.689c-3.569,0.991-7.215-0.94-10.503-2.645  c-21.092-10.94-104.983-85.804-127.669-69.281c-58.448,42.566-89.836,88.381-136.017,156.202c18.401,1.082,62.416,0.36,62.416,0.36  s9.882-8.202,21.647-21.645c10.102-11.543,8.067-25.408,15.875-28.86c7.808-3.452,21.4-16.164,23.838-24.344  c1.472-4.939,2.042-11.534,7.01-12.912C197.559,230.373,200.331,231.668,202.759,232.999z"/>
<linearGradient id="SVGID_4_-i2" gradientUnits="userSpaceOnUse" x1="5419.291" y1="3391.3423" x2="5567.5308" y2="2804.6814" gradientTransform="matrix(0.1 0 0 0.1 -179.1 -131.1)">
	<stop offset="0" style="stop-color:#428DFC"/>
	<stop offset="1" style="stop-color:#1D72D8"/>
</linearGradient>
<path fill="url(#SVGID_4_-i2)" d="M365.066,143.602c2.851-0.12,5.868,0.159,8.221,1.774c1.941,1.333,3.211,3.42,4.365,5.472  c15.873,28.179,21.345,62.064,15.152,93.806c-0.48,2.46-1.077,5.011-2.687,6.933c-1.736,2.071-4.393,3.105-6.978,3.895  c-7.887,2.409-16.234,3.299-24.452,2.608c-4.895-0.412-10.32-1.759-12.869-5.959c-2.597-4.281-1.195-9.762,0.295-14.542  c4.064-13.036,8.295-26.361,7.749-40.005c-0.547-13.643-6.892-27.916-19.085-34.063  C340.291,152.089,352.387,144.135,365.066,143.602z"/>
<linearGradient id="SVGID_5_-i2" gradientUnits="userSpaceOnUse" x1="4107.0562" y1="3425.2788" x2="3966.7727" y2="4600.6592" gradientTransform="matrix(0.1 0 0 0.1 -179.1 -131.1)">
	<stop offset="0" style="stop-color:#23286B"/>
	<stop offset="1" style="stop-color:#151A4F"/>
</linearGradient>
<path fill="url(#SVGID_5_-i2)" d="M356.306,301.582c-6.587,2.67-13.855,3.178-20.957,2.936c-24.242-0.83-48.096-10.335-66.266-26.402  c-22.977-20.318-43.387-51.578-72.361-61.641c-19.534-5.978-12.905,19.467-33.087,40.657c-7.972,8.37-19.708,9.148-26.31,17.139  c-7.574,9.168-2.472,4.911-8.77,20.328c-1.838,4.499-25.453,23.838-28.369,23.912c-20.467,0.522-26.079,0.8-47.985,0.263  c20.925-49.324,69.178-98.712,105.172-150.548c1.999-2.879,5.123-5.036,8.5-5.979c2.279-0.636,4.693-0.481,7.05-0.289  c56.463,4.57,111.381,26.687,155.25,62.522c3.687,3.011,7.367,4.449,10.012,9.258c1.942,3.533,0.427,10.206-0.481,16.114  c-0.908,5.907-1.625,9.07,4.089,10.822c-2.256-10.424-1.202-27.657-1.202-27.657s7.273-8.433,10.866-13.728  c14.142,7.502,29.918,8.1,44.695,1.943c0,22.847-5.399,34.746-12.989,50.596C377.257,284.164,368.984,296.442,356.306,301.582z"/>
<linearGradient id="SVGID_6_-i2" gradientUnits="userSpaceOnUse" x1="4873.2344" y1="2645.9148" x2="5729.168" y2="3072.5635" gradientTransform="matrix(0.1 0 0 0.1 -179.1 -131.1)">
	<stop offset="0" style="stop-color:#A1C3FC"/>
	<stop offset="1" style="stop-color:#78A9EF"/>
</linearGradient>
<path fill="url(#SVGID_6_-i2)" d="M294.01,90.762c3.119-4.203,18.367-1.457,24.545,2.034c23.033,13.015,39.903,27.451,54.82,49.301  c5.044,7.387,8.707,13.665,14.14,27.036c-12.155,0.792-15.656,17.227-48.849,25.403c-6.254-21.164-12.286-32.901-26.458-45.214  c-10.647-9.249-11.812-11.343-16.356-28.379C292.967,110.12,289.58,102.492,294.01,90.762z"/>
<path fill="none" stroke="#000000" stroke-miterlimit="10" d="M312.185,140.427c-5.13,25.226-7.555,51.002-7.22,76.742  c-6.349-0.631-12.474-3.339-17.214-7.609c-0.72,1.443-1.441,2.887-2.161,4.33"/>
<path fill="#428DFC" d="M274.346,82.231c4.952-1.729,10.166-5.129,10.693-10.347c0.467-4.622-2.926-8.643-6.097-12.04  c-3.366-3.609-6.731-7.218-10.097-10.826c-0.715-0.768-1.463-1.556-2.436-1.952c-1.383-0.562-2.951-0.224-4.388,0.18  c-7.222,2.031-13.922,5.551-20.56,9.044c-2.425,1.276-4.875,2.57-6.942,4.369c-5.785,5.034-8.21,14.381-4.93,21.313  c6.122-2.306,13.353,0.188,19.731,1.648C257.572,85.508,266.353,85.022,274.346,82.231z"/>
<g>
	<path fill="#E94A47" d="M263.224,76.507c-12.082,0-23.963-2.11-34.745-6.268c-0.451-0.174-0.674-0.68-0.5-1.129   c0.173-0.451,0.68-0.673,1.128-0.5c16.937,6.532,36.652,7.915,55.514,3.897c0.468-0.102,0.934,0.2,1.037,0.672   c0.1,0.473-0.2,0.935-0.673,1.036C277.79,75.748,270.471,76.507,263.224,76.507z"/>
</g>
<g>
	<path fill="#E94A47" d="M245.744,77.084c-6.635,0-12.803-0.977-18.485-2.935c-0.455-0.157-0.698-0.654-0.541-1.11   c0.157-0.457,0.653-0.698,1.11-0.542c15.331,5.283,34.423,3.19,56.738-6.22c0.443-0.187,0.957,0.02,1.145,0.465   c0.187,0.444-0.021,0.957-0.465,1.144C270.717,74.014,257.502,77.084,245.744,77.084z"/>
</g>
<path fill="#428DFC" d="M265.117,45.506c-3.648-8.878,0.117-21.758,6.784-28.663c6.667-6.906,16.387-10.28,25.973-10.788  c3.017-0.16,6.164-0.032,8.858,1.334c2.694,1.367,4.812,4.255,4.443,7.254c-3.649-1.864-8.289-0.754-11.473,1.827  c-3.183,2.579-5.139,6.369-6.597,10.197c-1.165,3.06-2.112,6.294-4.171,8.842c-2.302,2.846-5.728,4.505-9.071,5.994  c-4.32,1.925-8.971,6.046-13.142,3.817C266.275,52.701,265.587,46.92,265.117,45.506z"/>
<g>
	<path fill="#428DFC" d="M264.961,44.458c-0.208,0-0.393-0.151-0.429-0.364c-1.279-7.457-1.372-15.035-0.28-22.526   c1.041-7.142,3.037-12.211,6.28-15.953c4.209-4.855,10.728-6.848,15.853-4.844c0.225,0.088,0.336,0.341,0.248,0.566   s-0.342,0.335-0.565,0.248c-4.788-1.872-10.903,0.021-14.875,4.603c-3.129,3.609-5.06,8.536-6.076,15.506   c-1.079,7.4-0.986,14.887,0.277,22.252c0.04,0.237-0.12,0.463-0.357,0.504C265.011,44.456,264.985,44.458,264.961,44.458z"/>
</g>
<g>
	<path fill="#23286B" d="M247.151,108.283c-1.924,0-4.034-0.631-5.943-1.775c-4.351-2.611-6.367-6.978-4.589-9.942   c0.917-1.528,2.737-2.403,4.992-2.403c1.923,0,4.034,0.631,5.942,1.775c4.352,2.611,6.367,6.978,4.589,9.942   C251.225,107.407,249.405,108.283,247.151,108.283z M241.61,95.908c-1.627,0-2.901,0.567-3.495,1.556   c-1.232,2.054,0.596,5.51,3.99,7.546c1.64,0.984,3.431,1.526,5.044,1.526c1.627,0,2.9-0.567,3.494-1.556   c1.232-2.054-0.596-5.51-3.99-7.546C245.013,96.451,243.222,95.908,241.61,95.908z"/>
</g>
<rect x="260.255" y="41.579" fill="#E94A47" width="10.102" height="10.1"/>
<rect x="304.751" y="302.098" fill="#D62929" width="94.526" height="22.367"/>
<rect x="285.991" y="324.465" fill="#428DFC" width="94.526" height="22.367"/>
<rect x="311.246" y="306.787" fill="#D6D7D8" width="88.754" height="12.987"/>
<rect x="313.41" y="329.846" fill="#EEEEEE" width="33.193" height="10.822"/>
<linearGradient id="SVGID_7_-i2" gradientUnits="userSpaceOnUse" x1="3530.0613" y1="3064.5361" x2="4737.5957" y2="3064.5361" gradientTransform="matrix(0.1 0 0 0.1 -179.1 -131.1)">
	<stop offset="0" style="stop-color:#EEEEEE"/>
	<stop offset="1" style="stop-color:#D6D7D8"/>
</linearGradient>
<path fill="url(#SVGID_7_-i2)" d="M173.906,164.321l37.416-16.202c0,0,83.902,28.515,83.335,30.459  c-0.566,1.944-22.109,22.683-24.377,23.978C268.012,203.851,173.906,164.321,173.906,164.321z"/>
<g>
	<path fill="#23286B" d="M195.236,167.924c-0.159,0-0.312-0.087-0.389-0.237c-0.109-0.215-0.024-0.477,0.191-0.587l21.897-11.18   c0.215-0.108,0.477-0.024,0.587,0.191s0.024,0.477-0.191,0.587l-21.897,11.18C195.371,167.909,195.303,167.924,195.236,167.924z"/>
</g>
<g>
	<path fill="#23286B" d="M204.59,173.027c-0.153,0-0.301-0.081-0.382-0.223c-0.118-0.21-0.042-0.477,0.168-0.595l21.684-12.152   c0.209-0.117,0.476-0.043,0.595,0.166c0.118,0.21,0.042,0.477-0.168,0.595l-21.684,12.152   C204.736,173.009,204.662,173.027,204.59,173.027z"/>
</g>
<g>
	<path fill="#23286B" d="M220.959,181.289c-0.144,0-0.284-0.072-0.369-0.201c-0.129-0.204-0.069-0.473,0.134-0.602l24.447-15.553   c0.201-0.126,0.472-0.07,0.602,0.134c0.129,0.204,0.069,0.473-0.134,0.602l-24.447,15.553   C221.12,181.268,221.039,181.289,220.959,181.289z"/>
</g>
<g>
	<path fill="#23286B" d="M261.35,191.741c-0.134,0-0.267-0.061-0.352-0.178c-0.142-0.195-0.101-0.468,0.093-0.611l19.557-14.338   c0.193-0.143,0.468-0.102,0.611,0.093c0.142,0.195,0.101,0.468-0.093,0.611l-19.557,14.338   C261.532,191.713,261.441,191.741,261.35,191.741z"/>
</g>
<g>
	<path fill="#23286B" d="M246.256,184.693c-0.144,0-0.284-0.072-0.369-0.201c-0.129-0.202-0.07-0.473,0.134-0.602l20.197-12.879   c0.2-0.129,0.473-0.071,0.602,0.133c0.129,0.204,0.07,0.473-0.134,0.602l-20.197,12.88   C246.418,184.67,246.338,184.693,246.256,184.693z"/>
</g>
<path fill="#FFBEB6" d="M255.324,159.062c-2.522,0.549-9.199,2.525-11.802,3.897c-2.387,1.258-5.883,3.512-6.056,6.204  c-0.231,3.582,5.827,0.191,9.102-1.027c6.32-2.349,13.677-3.227,23.503-1.585c2.221,0.371,5.21-1.015,3.895-1.795  c-1.316-0.78-2.225-1.905-4.75-3.168C266.238,160.1,258.677,158.332,255.324,159.062z"/>
<linearGradient id="SVGID_8_-i2" gradientUnits="userSpaceOnUse" x1="4168.3657" y1="3160.7683" x2="4180.8364" y2="3458.9456" gradientTransform="matrix(0.1 0 0 0.1 -179.1 -131.1)">
	<stop offset="0" style="stop-color:#FFBEB6"/>
	<stop offset="1" style="stop-color:#F2A19C"/>
</linearGradient>
<path fill="url(#SVGID_8_-i2)" d="M285.588,201.882c-7.905,0-34.373-5.415-48.51-11.856c-3.849-1.754-13.049-12.791-14.993-13.836  c-6.254-3.361-17.617-7.597-18.065-6.643c-4.311,7.185,7.715,5.129,12.936,11.856c-9.657-3.43-17.287-6.893-26.944-10.323  c1.143,9.211,7.867,6.656,11.133,11.4c0.643,0.933,5.553,16.394,6.549,16.933c1.244,0.672,2.75,0.525,4.157,0.385  c7.66-0.76,15.398-0.716,23.049,0.12c4.929,0.539,35.093,16.58,39.907,17.773C275.018,214.665,284.528,204.726,285.588,201.882z"/>
<path fill="#A1C3FC" d="M320.144,110.578c-2.459-6.117-11.089-11.884-17.5-10.349c-6.969,1.668-7.708,10.337-7.637,17.503  c0.121,12.226,1.141,28.265,1.774,37.185c0.934,13.185-1.843,26.189-4.32,39.173c-0.443,2.394-1.287,4.407-2.379,6.121  c-18.018,0.991-36.293-2.718-52.445-10.776c-3.591,5.774-5.697,12.462-6.063,19.251c-0.074,1.373-0.049,2.852,0.737,3.981  c0.89,1.278,2.511,1.778,4.013,2.187c23.504,6.389,44.031,10.969,68.311,12.896c0.735,0.066,1.373-0.301,1.927-0.974  c0.445-0.244,0.796-0.581,1.032-1.032c5.38-10.304,8.884-25.033,11.26-37.876c2.605-14.089,3.678-26.987,5.475-41.203  C325.808,134.949,324.598,121.66,320.144,110.578z"/>
<rect x="311.246" y="316.609" fill="#EEEEEE" width="88.754" height="1.637"/>
<rect x="311.246" y="313.335" fill="#EEEEEE" width="88.754" height="1.637"/>
<rect x="311.246" y="310.061" fill="#EEEEEE" width="88.754" height="1.637"/>
<rect x="311.246" y="306.787" fill="#EEEEEE" width="88.754" height="1.637"/>
<circle fill="#23286B" cx="362.216" cy="335.679" r="6.22"/>
<path id="texture-2_1_-i2" fill="#FFFFFF" d="M300.169,122.209c0.117-0.108,0.121-0.221,0.013-0.338  c-0.108-0.117-0.221-0.121-0.338-0.013c-0.117,0.108-0.121,0.221-0.013,0.338l0,0C299.939,122.313,300.056,122.204,300.169,122.209  L300.169,122.209z M307.55,99.483c0.112,0.004,0.23-0.104,0.234-0.216l0,0c0.004-0.112-0.104-0.23-0.216-0.233l0,0  c-0.112-0.004-0.23,0.104-0.234,0.216C307.213,99.47,307.433,99.591,307.55,99.483L307.55,99.483L307.55,99.483z M303.076,110.704  c0.112,0.004,0.225,0.008,0.342-0.101c0.004-0.112,0.008-0.225-0.101-0.342c-0.112-0.004-0.225-0.008-0.342,0.101  C302.855,110.583,302.963,110.699,303.076,110.704z M327.631,129.652c0.221,0.121,0.451,0.017,0.572-0.205  c0.121-0.221,0.017-0.451-0.205-0.571l0,0c-0.221-0.121-0.451-0.017-0.572,0.205C327.193,129.298,327.406,129.644,327.631,129.652  L327.631,129.652z M317.63,125.674c0.221,0.121,0.451,0.017,0.572-0.205c0.121-0.221,0.017-0.451-0.205-0.571  c-0.221-0.121-0.451-0.017-0.572,0.205l0,0C317.306,125.323,317.41,125.552,317.63,125.674z M307.635,121.583  c0.221,0.121,0.451,0.017,0.572-0.205l0,0c0.121-0.221,0.017-0.451-0.205-0.571l0,0c-0.221-0.121-0.451-0.017-0.572,0.205  C307.308,121.233,307.412,121.462,307.635,121.583z M311.246,145.844c0.121-0.221,0.129-0.446,0.025-0.675  c-0.221-0.121-0.446-0.129-0.675-0.025c-0.121,0.221-0.129,0.446-0.021,0.563C310.786,146.053,311.012,146.061,311.246,145.844  L311.246,145.844z M303.518,138.342c0.121-0.221,0.129-0.446,0.025-0.675c-0.221-0.121-0.446-0.129-0.675-0.025  c-0.121,0.221-0.129,0.446-0.021,0.563C303.064,138.438,303.401,138.451,303.518,138.342L303.518,138.342z M326.744,107.973  c0.225,0.008,0.458-0.209,0.468-0.434c0.008-0.225-0.209-0.458-0.434-0.468l0,0c-0.225-0.008-0.458,0.209-0.468,0.434l0,0  C326.3,107.731,326.518,107.964,326.744,107.973z M315.916,108.022c0.225,0.008,0.458-0.209,0.468-0.434  c0.008-0.225-0.209-0.458-0.434-0.468c-0.225-0.008-0.458,0.209-0.468,0.434l0,0C315.475,107.781,315.692,108.014,315.916,108.022  L315.916,108.022z M305.202,108.076c0.225,0.008,0.458-0.209,0.468-0.434l0,0c0.008-0.225-0.209-0.458-0.434-0.468l0,0  c-0.225-0.008-0.458,0.209-0.468,0.434C304.756,107.947,304.978,108.068,305.202,108.076L305.202,108.076z M303.647,153.117  c0.117-0.108,0.242-0.442,0.021-0.563c-0.108-0.117-0.442-0.242-0.563-0.021c-0.117,0.108-0.242,0.442-0.021,0.563l0,0  C303.188,153.326,303.414,153.333,303.647,153.117z M321.997,117.38c0.225,0.008,0.455-0.096,0.462-0.321  c0.008-0.225-0.101-0.342-0.321-0.462l0,0c-0.225-0.008-0.455,0.096-0.462,0.321l0,0  C321.668,117.142,321.772,117.371,321.997,117.38L321.997,117.38z M312.443,116.575c0.225,0.008,0.455-0.096,0.462-0.321  c0.008-0.225-0.101-0.342-0.321-0.462l0,0c-0.225-0.008-0.455,0.096-0.462,0.321l0,0  C312.112,116.337,312.217,116.566,312.443,116.575L312.443,116.575z M302.892,115.658c0.225,0.008,0.455-0.096,0.462-0.321l0,0  c0.008-0.225-0.101-0.342-0.321-0.462l0,0c-0.225-0.008-0.455,0.096-0.462,0.321l0,0  C302.559,115.533,302.667,115.649,302.892,115.658L302.892,115.658z M311.513,135.595c0.221,0.121,0.451,0.017,0.572-0.205  c0.121-0.221,0.017-0.451-0.205-0.571c-0.221-0.121-0.451-0.017-0.572,0.205C311.187,135.245,311.288,135.586,311.513,135.595  L311.513,135.595z M302.993,131.22c0.221,0.121,0.451,0.017,0.567-0.091l0,0c0.121-0.221,0.017-0.451-0.205-0.571  c-0.221-0.121-0.451-0.017-0.572,0.205C302.667,130.869,302.771,131.099,302.993,131.22L302.993,131.22z M315.345,99.095  c0.23-0.104,0.346-0.213,0.242-0.442l0,0c-0.104-0.23-0.326-0.35-0.442-0.242l0,0c-0.23,0.104-0.35,0.325-0.246,0.554  C314.899,98.965,315.12,99.086,315.345,99.095L315.345,99.095L315.345,99.095z M306.22,101.914c0.23-0.104,0.35-0.325,0.246-0.554  c-0.104-0.23-0.326-0.35-0.555-0.246c-0.23,0.104-0.35,0.325-0.242,0.442C305.77,101.897,305.991,102.018,306.22,101.914  C306.108,101.909,306.22,101.914,306.22,101.914L306.22,101.914z M313.218,156.515c0.221,0.121,0.451,0.017,0.572-0.205  c0.121-0.221,0.017-0.451-0.205-0.571c-0.221-0.121-0.451-0.017-0.572,0.205C312.893,156.165,312.998,156.394,313.218,156.515  L313.218,156.515z M303.367,151.528c0.221,0.121,0.451,0.017,0.572-0.205c0.121-0.221,0.017-0.451-0.205-0.571  c-0.221-0.121-0.451-0.017-0.572,0.205C303.047,151.066,303.147,151.407,303.367,151.528L303.367,151.528z M317.31,109.99  c0.23-0.104,0.35-0.325,0.246-0.554c-0.104-0.23-0.326-0.35-0.555-0.246c-0.23,0.104-0.35,0.325-0.246,0.554  C316.747,109.97,317.08,110.095,317.31,109.99L317.31,109.99z M306.695,113.431c0.23-0.104,0.35-0.325,0.246-0.554  c-0.104-0.23-0.326-0.35-0.555-0.246c-0.23,0.104-0.35,0.325-0.246,0.554C306.249,113.302,306.466,113.535,306.695,113.431  L306.695,113.431z M314.615,134.018c0.225,0.008,0.458-0.209,0.468-0.434c0.008-0.225-0.209-0.458-0.434-0.468  c-0.225-0.008-0.458,0.209-0.468,0.434l0,0C314.174,133.776,314.39,134.011,314.615,134.018L314.615,134.018L314.615,134.018z   M303.597,133.159c0.225,0.008,0.458-0.209,0.468-0.434l0,0c0.008-0.225-0.209-0.458-0.434-0.468l0,0  c-0.225-0.008-0.458,0.209-0.468,0.434C303.155,132.917,303.259,133.147,303.597,133.159L303.597,133.159z M315.916,141.508  c0.225,0.008,0.458-0.209,0.468-0.434c0.008-0.225-0.209-0.458-0.434-0.468s-0.455,0.096-0.468,0.434  C315.475,141.266,315.691,141.5,315.916,141.508L315.916,141.508z M304.914,140.198c0.225,0.008,0.458-0.209,0.468-0.434  c0.008-0.225-0.096-0.455-0.434-0.468c-0.225-0.008-0.458,0.209-0.58,0.429C304.473,139.956,304.689,140.189,304.914,140.198  L304.914,140.198z M308.723,119.594c0.23-0.104,0.35-0.325,0.358-0.55c-0.104-0.23-0.324-0.35-0.55-0.358  c-0.23,0.104-0.35,0.325-0.358,0.55l0,0C308.164,119.461,308.497,119.586,308.723,119.594L308.723,119.594L308.723,119.594z"/>
<path fill="#428DFC" d="M291.525,83.386c1.67,5.281-4.048,21.986-4.171,22.585c-0.118,0.577,8.006,18.849,8.006,18.849  s3.276-10.51,4.298-15.816c1.238-6.425,3.465-13.942,0.866-19.947C300.355,88.669,292.485,84.1,291.525,83.386z"/>

        </g>
    </g>
</g>

              </svg>