<?xml version="1.0" encoding="UTF-8"?><svg version="1.1" xmlns="http://www.w3.org/2000/svg" xmlns:xlink="http://www.w3.org/1999/xlink" viewBox="0 0 1200 800" width="1200" height="800" x="0px" y="0px">
              
              <!-- ITEM 0 -->
<g transform="translate(168.0 112.0) scale(2.7676568366007963 2.770661435611481) rotate(0.0 153.5595 114.95450000000001)">
<g transform="translate(-0.0 -0.0)">

<g>
	<rect x="121.322" y="148.638" fill="#D6D7D8" width="69.889" height="77.764"/>
	<rect x="78.01" y="223.88" fill="#428DFC" width="156.513" height="6.029"/>
	<linearGradient id="SVGID_1_-i0" gradientUnits="userSpaceOnUse" x1="0" y1="99.42" x2="307.1193" y2="99.42">
		<stop offset="0" style="stop-color:#EEEEEE"/>
		<stop offset="1" style="stop-color:#D6D7D8"/>
	</linearGradient>
	<rect x="0" y="0" fill="url(#SVGID_1_-i0)" width="307.119" height="198.84"/>
	<rect x="5.414" y="4.958" fill="#FFFFFF" width="296.291" height="163.755"/>
</g>
<circle fill="#EEEEEE" cx="284.522" cy="183.469" r="8.754"/>

</g>
</g>

<!-- ITEM 1 -->
<g transform="translate(120.0 73.0) scale(1.08 1.0869565217391304) rotate(0.0 74.99999999999999 57.5)">
<g transform="translate(-0.0 -0.0)">

<ellipse fill="#A1C3FC" cx="104.046" cy="69.194" rx="45.954" ry="45.806"/>
<path fill="#428DFC" d="M117.54,41.182h22.853c-1.25-1.61-2.601-3.138-4.051-4.566h-18.802  C117.539,36.616,117.539,41.182,117.54,41.182z"/>
<path fill="#428DFC" d="M117.54,52.143h29.156c-0.63-1.566-1.338-3.092-2.133-4.566h-27.025v4.566H117.54z"/>
<path fill="#428DFC" d="M117.54,63.103h32.043c-0.207-1.549-0.49-3.072-0.848-4.566H117.54L117.54,63.103L117.54,63.103z"/>
<path fill="#428DFC" d="M117.54,74.064h32.199c0.159-1.502,0.243-3.026,0.253-4.566h-32.452  C117.539,69.497,117.539,74.064,117.54,74.064z"/>
<path fill="#428DFC" d="M117.54,85.024h29.639c0.549-1.487,1.022-3.012,1.416-4.567H117.54V85.024z"/>
<path fill="#428DFC" d="M117.54,95.985h23.77c1.059-1.461,2.035-2.984,2.919-4.567H117.54V95.985z"/>
<path fill="#428DFC" d="M88.676,106.945h41.39c2.002-1.373,3.883-2.903,5.638-4.566H88.676V106.945z"/>
<path fill="#428DFC" d="M104.046,115c4.247,0,8.354-0.586,12.257-1.661H91.789C95.692,114.414,99.799,115,104.046,115z"/>
<ellipse fill="#78A9EF" cx="99.922" cy="66.911" rx="44.579" ry="44.436"/>
<g>
	<path fill="#AFCCFC" d="M99.923,104.55c-20.821,0-37.761-16.885-37.761-37.641c0-0.282,0.23-0.511,0.512-0.511   s0.512,0.229,0.512,0.511c0,20.192,16.481,36.619,36.736,36.619s36.736-16.427,36.736-36.619c0-20.191-16.48-36.618-36.736-36.618   c-0.283,0-0.512-0.229-0.512-0.511s0.23-0.511,0.512-0.511c20.821,0,37.761,16.884,37.761,37.64S120.744,104.55,99.923,104.55z"/>
</g>
<path fill="#A1C3FC" d="M73.327,54.681c1.483,3.266-0.652,7.419-0.652,7.419s-4.539-1.142-6.022-4.408  c-1.483-3.266,0.652-7.419,0.652-7.419S71.844,51.416,73.327,54.681z"/>
<path fill="#A1C3FC" d="M73.156,68.548c2.918,2.095,3.142,6.757,3.142,6.757s-4.506,1.264-7.424-0.832  c-2.918-2.095-3.142-6.757-3.142-6.757S70.238,66.452,73.156,68.548z"/>
<path fill="#A1C3FC" d="M76.547,81.163c3.574,0.399,6.063,4.352,6.063,4.352s-3.305,3.305-6.879,2.905  c-3.574-0.399-6.063-4.352-6.063-4.352S72.973,80.763,76.547,81.163z"/>
<path fill="#97BDF3" d="M123.183,55.703c-1.483,3.266,0.652,7.419,0.652,7.419s4.539-1.142,6.022-4.408  c1.483-3.266-0.652-7.419-0.652-7.419S124.666,52.437,123.183,55.703z"/>
<path fill="#A1C3FC" d="M73.99,60.811c-1.483,3.266,0.652,7.419,0.652,7.419s4.539-1.142,6.022-4.408  c1.483-3.266-0.652-7.419-0.652-7.419S75.473,57.545,73.99,60.811z"/>
<path fill="#A1C3FC" d="M123.355,69.57c-2.918,2.095-3.142,6.757-3.142,6.757s4.506,1.264,7.424-0.832  c2.918-2.095,3.142-6.757,3.142-6.757S126.272,67.474,123.355,69.57z"/>
<path fill="#97BDF3" d="M78.398,72.52c-2.024,2.964-0.636,7.42-0.636,7.42s4.668-0.347,6.692-3.311  c2.024-2.964,0.636-7.42,0.636-7.42S80.422,69.558,78.398,72.52z"/>
<path fill="#A1C3FC" d="M119.963,82.184c-3.574,0.399-6.063,4.352-6.063,4.352s3.305,3.305,6.879,2.905  c3.574-0.399,6.063-4.352,6.063-4.352S123.537,81.785,119.963,82.184z"/>
<path fill="#A1C3FC" d="M84.352,86.12c-1.709,3.154,0.127,7.446,0.127,7.446s4.609-0.821,6.317-3.975  c1.709-3.154-0.127-7.446-0.127-7.446S86.062,82.966,84.352,86.12z"/>
<path fill="#97BDF3" d="M122.772,61.832c1.483,3.266-0.652,7.419-0.652,7.419s-4.539-1.142-6.022-4.408  c-1.483-3.266,0.652-7.419,0.652-7.419S121.289,58.567,122.772,61.832z"/>
<path fill="#97BDF3" d="M118.365,73.542c2.024,2.964,0.636,7.42,0.636,7.42s-4.668-0.347-6.692-3.311  c-2.024-2.964-0.636-7.42-0.636-7.42S116.34,70.579,118.365,73.542z"/>
<path fill="#A1C3FC" d="M112.41,87.142c1.709,3.154-0.127,7.446-0.127,7.446s-4.609-0.821-6.317-3.975  c-1.709-3.154,0.127-7.446,0.127-7.446S110.701,83.987,112.41,87.142z"/>
<polygon fill="#97BDF3" points="110.194,53.975 89.058,53.975 86.031,40.635 89.43,43.811 92.828,40.635 96.44,44.023   100.05,40.635 103.45,44.023 106.212,40.635 109.185,44.023 113.221,40.635 "/>
<g>
	<ellipse fill="#A1C3FC" cx="48.704" cy="46.719" rx="45.954" ry="45.806"/>
	<path fill="#428DFC" d="M62.197,18.708H85.05c-1.25-1.61-2.601-3.138-4.051-4.566H62.197V18.708z"/>
	<path fill="#428DFC" d="M62.197,29.668h29.156c-0.63-1.566-1.338-3.092-2.133-4.566H62.197V29.668z"/>
	<path fill="#428DFC" d="M62.197,40.629H94.24c-0.207-1.549-0.49-3.072-0.848-4.566H62.197V40.629z"/>
	<path fill="#428DFC" d="M62.197,51.589h32.199c0.159-1.502,0.243-3.026,0.253-4.566H62.197V51.589z"/>
	<path fill="#428DFC" d="M62.197,62.55h29.639c0.549-1.487,1.022-3.012,1.416-4.567H62.197V62.55z"/>
	<path fill="#428DFC" d="M62.197,73.51h23.77c1.059-1.461,2.035-2.984,2.919-4.567H62.197V73.51z"/>
	<path fill="#428DFC" d="M33.334,84.47h41.39c2.002-1.373,3.883-2.903,5.638-4.566H33.334V84.47z"/>
	<path fill="#428DFC" d="M48.704,92.525c4.247,0,8.354-0.586,12.257-1.661H36.446C40.35,91.939,44.457,92.525,48.704,92.525z"/>
</g>
<linearGradient id="SVGID_1_-i1" gradientUnits="userSpaceOnUse" x1="0" y1="77.5638" x2="89.159" y2="77.5638" gradientTransform="matrix(1 0 0 -1 0 122)">
	<stop offset="0" style="stop-color:#A1C3FC"/>
	<stop offset="1" style="stop-color:#78A9EF"/>
</linearGradient>
<ellipse fill="url(#SVGID_1_-i1)" cx="44.579" cy="44.436" rx="44.579" ry="44.436"/>
<g>
	<path fill="#AFCCFC" d="M44.581,82.076c-20.821,0-37.761-16.884-37.761-37.64c0-0.282,0.23-0.511,0.512-0.511   s0.512,0.229,0.512,0.511c0,20.191,16.48,36.618,36.736,36.618s36.736-16.427,36.736-36.618S64.837,7.818,44.581,7.818   c-0.283,0-0.512-0.229-0.512-0.511s0.23-0.511,0.512-0.511c20.821,0,37.761,16.886,37.761,37.64   C82.341,65.191,65.402,82.076,44.581,82.076z"/>
</g>
<g>
	<polygon fill="#AFCCFC" points="61.956,66.876 31.5,66.876 31.5,62.79 57.857,62.79 57.857,56.156 61.956,56.156  "/>
</g>
<g>
	<polygon fill="#AFCCFC" points="43.763,55.459 39.663,55.459 39.663,23.311 22.872,37.385 20.234,34.257 43.763,14.537  "/>
</g>
<g>
	<rect x="48.935" y="25.101" fill="#AFCCFC" width="4.099" height="22.834"/>
</g>

</g>
</g>

<!-- ITEM 2 -->
<g transform="translate(350.0 285.0) scale(1.609878086902157 1.610381488430269) rotate(315.11528310300577 159.95 159.9)">
<g transform="translate(-0.0 -0.0)">


<g>
	<path d="M314.9,319.8c-1.3,0-2.6-0.5-3.5-1.5L1.5,8.5c-2-2-2-5.1,0-7.1c2-2,5.1-2,7.1,0l309.9,309.8c2,2,2,5.1,0,7.1   C317.5,319.3,316.2,319.8,314.9,319.8z" style="fill:#a1c3fc;"/>
</g>

</g>
</g>

<!-- ITEM 3 -->
<g transform="translate(400.0 345.0) scale(3.0036899634982044 3.083247687564234) rotate(270.0 50.27150000000001 4.865)">
<g transform="translate(390.599 -65.576)">

<rect x="-390.599" y="65.576" fill="#D6D7D8" width="100.543" height="9.73"/>

</g>
</g>

<!-- ITEM 4 -->
<g transform="translate(203.0 385.0) scale(2.3074704355350444 2.3638232271325794) rotate(270.0 50.27150000000001 4.865000000000001)">
<g transform="translate(390.599 -65.576)">

<rect x="-390.599" y="65.576" fill="#a1c3fc" width="100.543" height="9.73"/>

</g>
</g>

<!-- ITEM 5 -->
<g transform="translate(181.0 407.0) scale(1.9096307052703818 1.9527235354573482) rotate(90.0 50.2715 4.865)">
<g transform="translate(390.599 -65.576)">

<rect x="-390.599" y="65.576" fill="#D6D7D8" width="100.543" height="9.73"/>

</g>
</g>

<!-- ITEM 6 -->
<g transform="translate(438.0 328.0) scale(3.312015754453318 3.3915724563206577) rotate(90.0 50.2715 4.865)">
<g transform="translate(390.599 -65.576)">

<rect x="-390.599" y="65.576" fill="#a1c3fc" width="100.543" height="9.73"/>

</g>
</g>

<!-- ITEM 7 -->
<g transform="translate(286.0 374.0) scale(2.526282287180609 2.5693730729701953) rotate(90.0 50.2715 4.865)">
<g transform="translate(390.599 -65.576)">

<rect x="-390.599" y="65.576" fill="#D6D7D8" width="100.543" height="9.73"/>

</g>
</g>

<!-- ITEM 8 -->
<g transform="translate(354.0 398.0) scale(2.05882060411963 2.158273381294964) rotate(90.0 50.2715 4.865)">
<g transform="translate(390.599 -65.576)">

<rect x="-390.599" y="65.576" fill="#a1c3fc" width="100.543" height="9.73"/>

</g>
</g>

<!-- ITEM 9 -->
<g transform="translate(531.0 320.0) scale(3.45125966004595 3.4943473792394655) rotate(90.0 50.27150000000001 4.865)">
<g transform="translate(390.599 -65.576)">

<rect x="-390.599" y="65.576" fill="#D6D7D8" width="100.543" height="9.73"/>

</g>
</g>

<!-- ITEM 10 -->
<g transform="translate(602.0 339.0) scale(3.113095889320987 3.186022610483042) rotate(90.0 50.2715 4.865)">
<g transform="translate(390.599 -65.576)">

<rect x="-390.599" y="65.576" fill="#a1c3fc" width="100.543" height="9.73"/>

</g>
</g>

<!-- ITEM 11 -->
<g transform="translate(693.0 313.0) scale(3.5805575723819656 3.699897225077081) rotate(90.0 50.2715 4.865)">
<g transform="translate(390.599 -65.576)">

<rect x="-390.599" y="65.576" fill="#D6D7D8" width="100.543" height="9.73"/>

</g>
</g>

<!-- ITEM 12 -->
<g transform="translate(769.0 337.0) scale(3.113095889320987 3.186022610483042) rotate(90.0 50.2715 4.865)">
<g transform="translate(390.599 -65.576)">

<rect x="-390.599" y="65.576" fill="#a1c3fc" width="100.543" height="9.73"/>

</g>
</g>

<!-- ITEM 13 -->
<g transform="translate(60.0 262.0) scale(1.2095880813657567 1.2109353456441097) rotate(0.0 83.4995 208.5165)">
<g transform="translate(-0.0 -0.0)">

<path fill="#151A4F" d="M26.103,399.159c2.971,0.703,5.942,1.405,8.913,2.108c13.477,3.187,27.575,6.378,41.02,3.057  c1.646-0.406,3.462-1.074,4.131-2.632c0.912-2.125-1.029-4.556-3.252-5.193s-4.585-0.095-6.888,0.114  c-7.893,0.717-15.837-2.693-21.559-8.177s-9.369-12.867-11.382-20.532c-4.471,1.969-6.521,7.056-8.143,11.665  c-1.698,4.822-3.395,9.643-5.093,14.465c-0.478,1.358-0.902,3.031,0.058,4.105C24.454,398.752,25.305,398.971,26.103,399.159z"/>
<path fill="#1D72D8" d="M115.399,184.45c7.493,19.947-18.943,89.374-25.535,109.819c-8.572,26.585-25.203,50.288-33.234,77.338  c-1.884,6.346-1.808,13.562-2.712,19.891c-0.452,3.164-7.843,2.757-15.157-0.139c-10.815-4.281-6.255-16.525-5.794-27.557  c1.079-25.852,11.622-51.864,5.874-76.861c-3.838-16.695-10.078-33.667-11.744-50.583c-1.624-16.492-2.901-49.235,8.411-62.357  C61.83,143.465,103.969,126.554,115.399,184.45z"/>
<path fill="#F2A19C" d="M132.846,31.216c2.403-3.712,6.507-12.278,3.65-15.744c-3.557-0.103-8.606-0.348-12.199,0.201  c-4.359,0.384,2.881,11.472-0.441,15.581c-2.927,3.62-6.219,6.987-7.948,11.43C122.553,39.648,126.462,33.972,132.846,31.216z"/>
<g>
	<path fill="#23286B" d="M116.193,32.365c-0.747,0-1.475-0.386-1.878-1.077c-0.605-1.037-0.256-2.367,0.78-2.973L158.348,3.05   c1.038-0.604,2.368-0.255,2.972,0.78c0.605,1.037,0.256,2.367-0.78,2.973l-43.253,25.265   C116.942,32.269,116.565,32.365,116.193,32.365z"/>
</g>
<path fill="#FFBEB6" d="M120.559,55.638c-0.828-4.787-0.891-10.099,2.77-13.136c4.242-3.519,7.14-4.436,10.606-8.919  c1.427-1.554-0.157-11.503-2.036-16.455c-0.932-1.407-2.286-1.939-4.198-0.536c-1.229,0.902-4.945,4.207-5.844,5.475  c-2.787,3.929,0.061,5.087,0.931,8.137c2.439,0.322,4.085-0.59,3.439-4.655c-0.211-1.331,0.601-2.67,2.25-2.666  c0.141,1.23,0.984,3.386-0.11,4.732c-3.927,4.828-14.233,10.187-17.129,13.673c-6.077,7.312,0.273,13.194,0.928,21.541  c2.585-1.545,5.871-1.993,8.344-3.907C120.108,57.716,120.922,57.153,120.559,55.638z"/>
<path fill="#23286B" d="M20.679,410.461c2.971,0.703,5.942,1.405,8.913,2.108c13.477,3.187,27.575,6.378,41.02,3.057  c1.646-0.406,3.462-1.074,4.131-2.632c0.912-2.125-1.029-4.556-3.252-5.193c-2.223-0.637-4.585-0.095-6.888,0.114  c-7.893,0.717-15.837-2.693-21.559-8.177s-9.369-12.867-11.382-20.532c-4.471,1.969-6.521,7.056-8.143,11.665  c-1.698,4.822-3.395,9.643-5.093,14.465c-0.478,1.358-0.902,3.031,0.058,4.105C19.029,410.053,19.88,410.272,20.679,410.461z"/>
<path fill="#151A4F" d="M116.882,150.159c-5.205-1.746-7.689-7.525-9.565-12.684c-3.498-9.622-7.047-19.546-6.65-29.777  c0.454-11.715,6.034-22.617,7.898-34.192c1.233-7.66,0.805-15.584-1.247-23.066c4.606,0.498,9.307,0.104,13.766-1.152  c1.789,13.943,10.954,25.69,16.076,38.78c3.299,8.431,4.92,17.515,4.74,26.567c-0.212,10.677-3.135,21.666-10.207,29.669  C127.964,148.523,122.221,151.95,116.882,150.159z"/>
<linearGradient id="SVGID_1_-i13" gradientUnits="userSpaceOnUse" x1="-5.8349" y1="317.8582" x2="103.5031" y2="202.6101">
	<stop offset="0" style="stop-color:#428DFC"/>
	<stop offset="1" style="stop-color:#1D72D8"/>
</linearGradient>
<path fill="url(#SVGID_1_-i13)" d="M38.526,395.31c-4.674-23.919,0.692-51.826,17.724-70.199c4.527-4.884,13.231-16.704,17.558-21.766  c6.595-7.715,10.542-18.312,13.11-24.412c8.738-20.752,19.439-40.686,30.067-93.31c0.295-1.462,7.557-29.395,6.068-29.498  c-13.312-0.923-27.22-3.701-29.246-3.82c-28.826-1.693-34.032,4.35-62.619,8.419c-3.864,0.55-8.288,1.473-10.128,4.915  c-4.761,17.731-7.954,35.882-9.53,54.173c-1.235,14.338-1.453,28.982,2.21,42.899c2.657,10.092,7.297,19.577,9.954,29.669  s-1.147,16.343-4.969,31.088c-1.808,6.973-14.199,27.852-2.731,72.087C20.14,398.718,34.677,397.784,38.526,395.31z"/>
<linearGradient id="SVGID_2_-i13" gradientUnits="userSpaceOnUse" x1="71.2884" y1="196.2175" x2="71.2884" y2="85.4041">
	<stop offset="0" style="stop-color:#23286B"/>
	<stop offset="1" style="stop-color:#151A4F"/>
</linearGradient>
<path fill="url(#SVGID_2_-i13)" d="M42.094,64.858C21.272,92.346,7.198,124.907,1.442,158.907c-1.378,8.141-2.276,16.575-0.28,24.587  c44.57,16.842,95.857,15.052,139.143-4.858c7.933-37.213-5.315-78.207-33.526-103.74C93.755,63.107,76.22,54.262,58.994,57.71  C48.049,59.901,48.834,55.96,42.094,64.858z"/>
<rect x="106.513" y="72.745" transform="matrix(-0.9336 0.3584 -0.3584 -0.9336 287.7643 153.8906)" fill="#A1C3FC" width="46.213" height="61.741"/>
<path fill="#E94A47" d="M37.137,12.872c3.006-1.387,3.508-5.945,1.376-8.477c-2.132-2.533-5.969-3.097-9.126-2.101  s-5.742,3.272-7.997,5.695c-2.133,2.292-4.108,4.854-4.975,7.862c-0.866,3.008-0.43,6.55,1.764,8.783  c3.125,3.179,8.683,2.564,12.234-0.13s5.58-6.887,7.481-10.918C39.287,16.769,35.746,9.689,37.137,12.872z"/>
<path fill="#F2A19C" d="M64.579,56.718c-0.023,0.591-0.05,1.202-0.305,1.735c-0.614,1.283-2.249,1.645-3.667,1.759  c-7.323,0.589-14.827-1.391-20.906-5.516c1.05-6.156,0.902-12.514-0.433-18.615c2.666,1.562,5.988,1.237,9.055,0.863  c5.7-0.695,11.401-1.391,17.101-2.086C65.142,42.145,64.86,49.431,64.579,56.718z"/>
<path fill="#FFBEB6" d="M31.527,27.362c0.154-1.43,0.473-2.835,0.791-4.238c0.333-1.468,0.666-2.936,0.999-4.405  c0.368-1.62,0.754-3.284,1.695-4.653c1.188-1.727,3.13-2.788,5.107-3.487c6.693-2.368,14.569-1.035,20.11,3.404  s8.561,11.834,7.711,18.883c-0.185,1.533-0.541,3.05-1.126,4.479c-0.989,2.417-2.625,4.547-4.613,6.24  c-5.649,4.81-14.28,5.758-20.839,2.289S30.73,34.739,31.527,27.362z"/>
<g>
	<path fill="#23286B" d="M46.154,36.139c-4.918,0-8.919-4.001-8.919-8.919s4.001-8.919,8.919-8.919c4.919,0,8.92,4.001,8.92,8.919   S51.073,36.139,46.154,36.139z M46.154,19.8c-4.091,0-7.419,3.328-7.419,7.419s3.328,7.419,7.419,7.419   c4.092,0,7.42-3.328,7.42-7.419S50.246,19.8,46.154,19.8z"/>
</g>
<g>
	<path fill="#23286B" d="M63.174,27.97c-4.918,0-8.919-4.001-8.919-8.919s4.001-8.919,8.919-8.919c4.919,0,8.92,4.001,8.92,8.919   S68.093,27.97,63.174,27.97z M63.174,11.631c-4.091,0-7.419,3.328-7.419,7.419s3.328,7.419,7.419,7.419   c4.092,0,7.42-3.328,7.42-7.419S67.265,11.631,63.174,11.631z"/>
</g>
<g>
	<path fill="#E94A47" d="M25.827,45.808c-1.678,0-3.323-0.271-4.86-0.82c-0.26-0.093-0.396-0.379-0.303-0.639   c0.094-0.26,0.379-0.396,0.639-0.303c3.482,1.242,7.581,0.955,11.244-0.787c3.664-1.743,6.473-4.743,7.705-8.229   c0.891-2.521,1.089-5.277,1.28-7.943c0.105-1.471,0.214-2.991,0.438-4.475c0.422-2.819,1.257-5.554,2.482-8.13   c0.793-1.668,2.058-3.815,3.571-4.572c0.249-0.123,0.546-0.023,0.671,0.224c0.123,0.247,0.023,0.547-0.224,0.671   c-0.982,0.491-2.089,1.95-3.116,4.107c-1.183,2.487-1.988,5.127-2.396,7.849c-0.217,1.445-0.324,2.947-0.429,4.398   c-0.196,2.732-0.398,5.557-1.334,8.205c-1.32,3.736-4.316,6.943-8.219,8.799C30.682,45.254,28.223,45.808,25.827,45.808z"/>
</g>
<path fill="#E94A47" d="M28.966,12.983c2.927-2.998,8.792-4.915,12.982-4.894c4.19,0.022,9.321,1.101,12.111,2.439  c-7.564,1.034-14.321,4.233-16.898,11.419c-1.432,3.994-1.337,10.416-2.898,14.362c-1.561,3.945-6.537,7.407-10.752,6.919  c2.435-4.645,1.887-10.205,1.655-15.444C24.935,22.544,25.302,16.736,28.966,12.983z"/>
<path fill="#FFBEB6" d="M139.549,91.257c6.414-3.836,1.548-13.334,3.034-14.63c3.498-3.051,4.259,2.222,5.093,6.327  c0.211,1.041,0.729,3.248,1.006,3.406c3.406,1.935,13.889,3.724,12.075,7.353c-0.451,0.903-2.072,1.606-2.322,2.554  c-1.036,3.93,0.448,8.372-2.399,11.997c-4.995-6.2-14.604-0.41-21.671-2.77c0.789-3.165,1.005-8.066,2.088-11.627  c0.166-0.545,1.252-2.567,1.084-2.012L139.549,91.257z"/>
<linearGradient id="SVGID_3_-i13" gradientUnits="userSpaceOnUse" x1="34.0417" y1="108.7875" x2="120.9542" y2="67.504">
	<stop offset="0" style="stop-color:#23286B"/>
	<stop offset="1" style="stop-color:#151A4F"/>
</linearGradient>
<path fill="url(#SVGID_3_-i13)" d="M70,129.19c-15.308-3.687-31.698-8.021-41.822-20.081c-3.975-4.735-6.709-10.395-8.853-16.194  c-2.895-7.834-4.76-16.613-1.882-24.453c4.766-12.986,21.374-18.418,34.753-14.905s23.952,13.617,33.032,24.053  c4.062,4.669,8.201,10.887,5.783,16.584c15.786-8.183,34.45-7.059,48.847-3.034c2.322,5.96,1.545,13.832,0.405,15.411  c-0.293,0.406-3.177,2.524-5.035,3.399c-11.489,5.418-19.72,16.67-31.728,20.811C92.779,134.476,81.026,131.846,70,129.19z"/>
<g>
	<path fill="#23286B" d="M51.247,21.283c-0.126,0-0.253-0.032-0.37-0.098c-0.36-0.205-0.485-0.663-0.28-1.023   c0.127-0.224,0.245-0.467,0.364-0.713c0.622-1.28,1.567-3.212,4.276-2.511c0.401,0.104,0.643,0.513,0.539,0.914   c-0.104,0.401-0.518,0.639-0.914,0.538c-1.464-0.377-1.879,0.328-2.552,1.714c-0.135,0.276-0.268,0.549-0.411,0.8   C51.762,21.147,51.508,21.283,51.247,21.283z"/>
</g>
<path fill="#E94A47" d="M156.624,4.081c0.485,0.906,1.066,2.066,1.699,2.9c0.573,0.755,0.702,0.724,0.702,0.724  s1.951-1.104,2.268-1.334c2.024-1.468,2.885-2.499,4.559-4.114c0.785-0.758,1.626-2.487-0.031-2.257  c-0.881,0.122-1.842,0.282-2.664,0.587c-2.072,0.768-3.944,1.961-5.905,3.003C156.913,3.769,156.624,3.947,156.624,4.081z"/>
<path id="texture-2_9_-i13" fill="#FFFFFF" d="M18.222,225.035c0.069-0.117,0.028-0.269-0.09-0.337c-0.117-0.069-0.269-0.028-0.337,0.09  c-0.069,0.117-0.028,0.269,0.09,0.337l0,0C18.002,225.193,18.153,225.155,18.222,225.035L18.222,225.035z M21.243,199.908  c0.135-0.034,0.216-0.174,0.18-0.309l0,0c-0.028-0.125-0.153-0.202-0.276-0.174c-0.01,0.001-0.021,0.005-0.031,0.009  c-0.131,0.03-0.211,0.16-0.182,0.292C20.971,199.86,21.109,199.942,21.243,199.908L21.243,199.908L21.243,199.908z M18.895,212.535  c0.138,0.008,0.261-0.09,0.286-0.225c0.017-0.14-0.083-0.269-0.225-0.286c-0.14-0.017-0.269,0.083-0.286,0.225  C18.664,212.388,18.758,212.51,18.895,212.535z M48.372,227.269c0.257,0.045,0.503-0.124,0.554-0.381  c0.057-0.245-0.095-0.49-0.339-0.549c-0.009-0.001-0.016-0.004-0.025-0.005c-0.257-0.045-0.503,0.124-0.554,0.381  C47.956,226.968,48.119,227.217,48.372,227.269L48.372,227.269z M37.136,225.084c0.26,0.044,0.505-0.129,0.548-0.389  c0.044-0.255-0.123-0.497-0.376-0.546c-0.253-0.052-0.501,0.11-0.553,0.363l0,0C36.715,224.775,36.882,225.023,37.136,225.084z   M25.883,222.884c0.253,0.051,0.498-0.111,0.549-0.364c0.001-0.005,0.001-0.01,0.003-0.016c0.057-0.245-0.095-0.49-0.339-0.549  c-0.009-0.001-0.016-0.004-0.025-0.005c-0.26-0.042-0.509,0.126-0.571,0.381C25.458,222.589,25.627,222.835,25.883,222.884z   M34.599,247.512c0.137-0.221,0.069-0.51-0.153-0.646c-0.221-0.137-0.51-0.069-0.646,0.153c-0.133,0.217-0.07,0.5,0.143,0.64  C34.164,247.796,34.455,247.731,34.599,247.512L34.599,247.512z M25.046,241.185c0.136-0.221,0.069-0.51-0.153-0.646  c-0.221-0.137-0.51-0.069-0.646,0.153c-0.133,0.217-0.07,0.5,0.143,0.64C24.609,241.468,24.902,241.403,25.046,241.185  L25.046,241.185z M43.045,204.758c0.256-0.058,0.418-0.308,0.364-0.566c-0.048-0.252-0.292-0.414-0.542-0.365  c0,0-0.004,0-0.005,0.001c-0.249,0.035-0.422,0.264-0.387,0.512c0.001,0.012,0.004,0.024,0.005,0.037  C42.541,204.632,42.786,204.798,43.045,204.758z M31.809,207.033c0.254-0.061,0.421-0.306,0.381-0.565  c-0.058-0.256-0.309-0.418-0.565-0.364c-0.254,0.052-0.419,0.301-0.366,0.556c0,0.003,0.001,0.007,0.001,0.007  c0.049,0.253,0.292,0.415,0.541,0.368C31.807,207.033,31.808,207.033,31.809,207.033z M20.592,209.306  c0.247-0.044,0.413-0.278,0.368-0.524c-0.001-0.007-0.003-0.014-0.005-0.021c-0.042-0.256-0.285-0.428-0.541-0.386  c-0.008,0.001-0.016,0.003-0.024,0.004c-0.257,0.054-0.422,0.306-0.368,0.562c0.054,0.257,0.308,0.422,0.562,0.368  C20.588,209.306,20.59,209.306,20.592,209.306z M28.148,256.712c0.145-0.18,0.119-0.445-0.06-0.593  c-0.179-0.147-0.445-0.12-0.593,0.06c-0.148,0.18-0.12,0.445,0.06,0.593l0,0C27.735,256.915,27.999,256.889,28.148,256.712z   M40.076,215.6c0.235-0.035,0.402-0.243,0.382-0.481c-0.021-0.224-0.221-0.389-0.445-0.367c-0.007,0.001-0.012,0.001-0.018,0.003  c-0.232,0.019-0.404,0.224-0.382,0.455c0,0.003,0.001,0.005,0.001,0.008C39.644,215.445,39.845,215.613,40.076,215.6L40.076,215.6z   M29.923,216.654c0.23-0.028,0.392-0.236,0.367-0.462c-0.021-0.224-0.221-0.389-0.445-0.367c-0.007,0.001-0.012,0.001-0.018,0.003  c-0.232,0.019-0.404,0.224-0.385,0.455c0,0.003,0.001,0.005,0.001,0.008C29.478,216.519,29.691,216.682,29.923,216.654  L29.923,216.654z M19.737,217.726c0.232-0.019,0.404-0.224,0.385-0.455l-0.001-0.008c-0.014-0.219-0.205-0.384-0.424-0.37  c-0.013,0-0.028,0.003-0.041,0.005c-0.232,0.019-0.404,0.224-0.385,0.455c0,0.003,0.001,0.005,0.001,0.008  C19.306,217.585,19.51,217.746,19.737,217.726L19.737,217.726z M32.773,236.796c0.226,0.059,0.456-0.072,0.52-0.297  c0.067-0.222-0.059-0.454-0.279-0.52c-0.224-0.063-0.46,0.06-0.537,0.279C32.413,236.487,32.545,236.726,32.773,236.796  L32.773,236.796z M22.967,233.877c0.213,0.07,0.443-0.043,0.514-0.254c0.003-0.008,0.004-0.016,0.008-0.024  c0.067-0.222-0.059-0.454-0.279-0.52c-0.224-0.063-0.46,0.06-0.537,0.279C22.612,233.581,22.743,233.813,22.967,233.877  L22.967,233.877z M29.33,197.799c0.197-0.101,0.274-0.342,0.174-0.538c-0.004-0.008-0.008-0.016-0.012-0.022  c-0.105-0.207-0.359-0.289-0.566-0.185c-0.004,0.003-0.009,0.005-0.013,0.007c-0.199,0.12-0.27,0.373-0.16,0.579  c0.108,0.202,0.36,0.277,0.562,0.17C29.32,197.807,29.324,197.802,29.33,197.799L29.33,197.799z M20.337,202.683  c0.206-0.113,0.285-0.369,0.177-0.579c-0.118-0.204-0.38-0.276-0.584-0.158c-0.195,0.112-0.27,0.357-0.171,0.559  c0.101,0.206,0.352,0.291,0.557,0.189C20.323,202.692,20.331,202.687,20.337,202.683L20.337,202.683z M38.897,258.242  c0.263,0.063,0.529-0.089,0.605-0.349c0.074-0.259-0.073-0.529-0.33-0.604c-0.263-0.066-0.531,0.088-0.605,0.349  C38.493,257.896,38.64,258.166,38.897,258.242L38.897,258.242z M27.544,254.992c0.259,0.076,0.529-0.073,0.604-0.33  s-0.073-0.529-0.33-0.604c-0.259-0.076-0.529,0.073-0.604,0.33C27.138,254.646,27.287,254.916,27.544,254.992L27.544,254.992z   M33.583,208.819c0.235-0.139,0.321-0.439,0.193-0.681c-0.139-0.233-0.444-0.309-0.677-0.168c-0.225,0.136-0.304,0.424-0.18,0.655  C33.054,208.857,33.345,208.943,33.583,208.819L33.583,208.819z M23.264,214.554c0.231-0.134,0.317-0.426,0.193-0.664  c-0.13-0.237-0.427-0.323-0.664-0.193c-0.237,0.13-0.323,0.427-0.193,0.664C22.733,214.593,23.028,214.677,23.264,214.554  L23.264,214.554z M35.738,234.462c0.264-0.044,0.451-0.283,0.433-0.549c-0.04-0.265-0.284-0.449-0.549-0.416  c-0.264,0.024-0.459,0.258-0.433,0.523c0,0,0.001,0.007,0.001,0.01C35.221,234.301,35.465,234.493,35.738,234.462  C35.736,234.462,35.738,234.462,35.738,234.462L35.738,234.462z M23.998,235.811c0.271-0.032,0.464-0.278,0.433-0.548l0-0.001  c-0.031-0.261-0.27-0.448-0.531-0.415l0,0c-0.266,0.031-0.459,0.27-0.428,0.535C23.498,235.644,23.734,235.835,23.998,235.811  L23.998,235.811z M38.633,242.027c0.265-0.027,0.459-0.264,0.432-0.532c-0.027-0.268-0.264-0.459-0.532-0.432  c-0.258,0.027-0.451,0.253-0.433,0.512C38.124,241.848,38.362,242.048,38.633,242.027L38.633,242.027z M26.902,242.885  c0.27-0.024,0.472-0.262,0.449-0.532c-0.025-0.262-0.253-0.459-0.515-0.45c-0.271,0.028-0.474,0.261-0.466,0.532  C26.398,242.703,26.633,242.9,26.902,242.885L26.902,242.885z M26.61,220.569c0.239-0.128,0.332-0.423,0.21-0.664  c-0.121-0.236-0.411-0.331-0.647-0.21c-0.239,0.108-0.346,0.389-0.238,0.627c0.003,0.007,0.005,0.013,0.011,0.018  c0.115,0.245,0.405,0.35,0.65,0.234C26.601,220.574,26.606,220.572,26.61,220.569L26.61,220.569z"/>
<path fill="#23286B" d="M165.821,0c-0.88,0.122-1.842,0.282-2.664,0.587c-0.161,0.06-0.315,0.137-0.474,0.201l1.602,3.016  c0.479-0.473,0.971-0.972,1.567-1.547C166.637,1.499,167.477-0.23,165.821,0z"/>

</g>
</g>

<!-- ITEM 14 -->
<g transform="translate(1184.0 175.0) scale(-1.3212026602923719 1.3180990519741977) rotate(-0.0 122.994 228.7385)">
<g transform="translate(-0.0 -0.0)">

<path fill="#F2A19C" d="M230.451,9.595c0.12,4.932,0.24,9.864,0.36,14.797c0.014,0.583,0.019,1.203-0.288,1.699  c-0.713,1.153-2.655,0.761-3.388-0.38c-0.733-1.141-0.623-2.608-0.486-3.957c-1.013,2.114-0.696,6.308-3.04,6.341  c-1.739,0.025-1.627-3.075-2.492-4.584c-1.734,2.148-4.238,3.882-6.998,3.895s-5.583-2.2-5.53-4.96  c0.071-3.676,4.368-5.494,7.857-6.657C221.297,14.17,225.992,12.094,230.451,9.595z"/>
<path fill="#FFBEB6" d="M227.54,15.48c0.414-0.283,0.848-0.575,1.345-0.645c1.409-0.2,2.44,1.563,2.102,2.945  s-1.51,2.376-2.616,3.271c-3.393,2.745-6.786,5.49-10.179,8.234c-1.301,1.053-2.668,2.138-4.303,2.493  c-0.985,0.214-2.037,0.155-2.961,0.557c-1.639,0.713-2.357,2.602-2.909,4.302c-2.068,6.36-4.135,12.721-6.203,19.081  c-3.291-2.199-7.455-3.051-11.345-2.32c5.793-12.877,14.835-37.085,16.127-37.294c11.012-1.863,21.1-6.832,29.751-13.895  c0.614-0.502,1.374-1.048,2.128-0.803c1.167,0.379,1.02,2.092,0.478,3.192c-2.248,4.56-6.94,7.371-11.603,9.395  c-4.664,2.024-9.638,3.574-13.64,6.709c-0.212,1.279,0.056,2.632,0.739,3.734C218.814,21.452,223.177,18.466,227.54,15.48z"/>
<path fill="#FFBEB6" d="M44.869,269.942c-0.573-0.34-0.812-1.054-0.856-1.719c-0.227-3.42,3.346-6.029,3.711-9.437  c0.279-2.6-1.448-5.084-3.661-6.477s-4.848-1.912-7.415-2.405c5.437-7.386,9.777-15.579,12.832-24.227  c1.567,3.052,3.379,5.978,5.415,8.739c0.836,1.135,2.166,2.373,3.455,1.802c-2.117,4.617-4.001,8.47-6.117,13.087  c1.413,2.564,2.605,5.201,2.462,6.951c-0.144,1.749-1.426,3.291-2.216,4.858c-1.395,2.769-2.355,3.879-3.75,6.648  C48.068,269.073,46.13,270.691,44.869,269.942z"/>
<path fill="#D6D7D8" d="M140.074,421.731c-5.202-1.581-10.43-3.168-15.813-3.934c-8.969-1.276-18.088-0.239-27.081,0.86  c2.036,5.762,3.414,11.756,4.098,17.829c20.425-0.044,41.052-0.044,61.286-0.044C163.166,432.752,148.551,424.308,140.074,421.731z"/>
<linearGradient id="SVGID_1_-i14" gradientUnits="userSpaceOnUse" x1="58.192" y1="446.0415" x2="133.2299" y2="446.0415">
	<stop offset="0" style="stop-color:#EEEEEE"/>
	<stop offset="1" style="stop-color:#D6D7D8"/>
</linearGradient>
<path fill="url(#SVGID_1_-i14)" d="M132.901,457.052c1.772-1.638-4.033-6.958-7.423-9.305c-3.019-2.091-6.567-3.255-10.058-4.393  c-18.582-6.054-38.886-12.103-57.228-5.357c0.769,7.05,0.06,19.055,0.06,19.055S124.043,456.996,132.901,457.052z"/>
<path fill="#151A4F" d="M142.162,220.003c1.402,0.169,2.92,0.393,3.902,1.408c1.069,1.105,1.17,2.802,1.151,4.34  c-0.167,13.184-4.608,25.937-5.99,39.05c-1.342,12.73,0.219,25.563,0.562,38.36c1.047,39.066-9.262,77.881-7.092,116.9  c-16.576-1.374-29.236-0.283-40.429,0.132c7.773-42.612,15.578-85.757,12.625-128.972c-1.726-25.255-6.982-51.554,1.997-75.222  C119.979,217.334,131.071,218.669,142.162,220.003z"/>
<path fill="#1D72D8" d="M176.468,76.935c1.817-4.423,2.134-9.299,3.27-13.944c1.947-7.963,9.677-20.461,15.84-25.866  c0.902-0.791,2.895-2.896,2.895-2.896s2.622,1.356,3.776,1.783c4.259,1.574,5.515,1.884,5.515,1.884  c0.674,8.762,1.875,19,0.675,27.885c-2.989,22.138-5.205,25.761-17.675,42.488c-10.785,14.468-22.782,19.777-34.635,33.383  c-2.325,2.668-4.901,5.669-8.424,5.999c-4.094,0.384-7.698-3.297-8.6-7.309c-0.902-4.012-10.091-2.393-8.727-6.272  c5.233-14.877,20.929-29.169,32.127-40.274C167.726,88.618,173.673,83.737,176.468,76.935z"/>
<linearGradient id="SVGID_2_-i14" gradientUnits="userSpaceOnUse" x1="108.0715" y1="171.4392" x2="179.5217" y2="156.3248">
	<stop offset="0" style="stop-color:#428DFC"/>
	<stop offset="1" style="stop-color:#1D72D8"/>
</linearGradient>
<path fill="url(#SVGID_2_-i14)" d="M120.215,116.857c-8.114,2.022-12.753,5.807-16.169,13.439c-3.417,7.633,0.836,25.797-0.156,34.1  c-2.481,20.755,1.258,34.031-1.328,53.422c7.577,5.381,40.45,4.033,46.578,2.156c9.277-13.19,10.349-23.385,15.75-38.578  c6.787-19.09,7-40,10-63c0.549-4.207-15.009-10.668-18.787-12.599c-5.733-2.931-9.384,2.172-15.601,3.847  C134.172,111.351,127.195,111.739,120.215,116.857z"/>
<path fill="#F2A19C" d="M145.223,92.938c-0.442,10.052-0.215,15.796-0.552,25.865c-6.733,2.817-14.376-3.378-21.141-0.153  c1.182-7.899,1.511-14.533,1.519-22.52C131.894,96.36,138.782,95.27,145.223,92.938z"/>
<path fill="#FFBEB6" d="M120.425,100.687c-3.272-1.78-11.707-6.33-13.153-8.237c-2.283-3.01-2.294-7.273-0.983-10.817  s3.754-6.533,6.154-9.451c1.646-2,3.428-4.096,5.892-4.895c2.511-0.814,5.235-0.122,7.782,0.573  c4.626,1.261,9.252,2.522,13.877,3.783c0.944,0.257,1.983,0.586,2.467,1.436c0.427,0.751,0.287,1.677,0.313,2.54  c0.129,4.361,4.586,7.433,5.544,11.689c1.359,6.039-2.14,7.175-7.524,10.229c-2.998,1.7-7.156,2.524-10.5,3.36  C126.935,101.737,122.273,101.692,120.425,100.687z"/>
<path fill="#23286B" d="M146.585,81.219c2.767,2.924,4.455,5.906,7.222,8.83c0.539,0.57,1.114,1.229,1.087,2.013  c-0.033,0.946-0.911,1.61-1.704,2.128c-5.72,3.742-9.674,6.885-15.394,10.627c-0.668,0.437-2.299,0.909-3.095,0.86  c-0.769-0.047-2.684-1.166-3.28-1.653c-3.167-2.584-2.948-3.966-5.97-6.719c-2.072-1.888-6.964-5.579-4.629-7.131  c2.295,1.257,4.589,2.514,6.884,3.77c2.135,1.17,4.345,2.363,6.767,2.609c2.422,0.246,5.137-0.697,6.246-2.864  c-2.37-3.768-2.15-8.991,0.527-12.547c0.436-0.579,1.025-1.007,1.708-1.251C144.756,79.248,145.893,80.487,146.585,81.219z"/>
<g>
	<path fill="#23286B" d="M127.752,80.812c-0.781,0-1.568-0.117-2.341-0.348c-1.671-0.499-3.095-1.478-4.009-2.756   c-0.942-1.317-1.236-2.794-0.829-4.158c0.622-2.079,2.831-3.475,5.498-3.475c0.78,0,1.568,0.117,2.341,0.348   c3.495,1.044,5.665,4.147,4.838,6.915C132.629,79.416,130.419,80.812,127.752,80.812z M126.071,71.075   c-2.222,0-4.046,1.109-4.54,2.761c-0.317,1.062-0.074,2.23,0.684,3.291c0.786,1.099,2.023,1.944,3.482,2.38   c0.68,0.203,1.372,0.306,2.055,0.306c2.222,0,4.046-1.109,4.54-2.76c0.669-2.24-1.2-4.784-4.166-5.671   C127.446,71.178,126.754,71.075,126.071,71.075z"/>
</g>
<linearGradient id="SVGID_3_-i14" gradientUnits="userSpaceOnUse" x1="71.9339" y1="172.8315" x2="114.1586" y2="201.3469">
	<stop offset="0" style="stop-color:#428DFC"/>
	<stop offset="1" style="stop-color:#1D72D8"/>
</linearGradient>
<path fill="url(#SVGID_3_-i14)" d="M43.764,238.396c4.706,4.404,10.25,7.375,10.25,7.375s3.878-2.682,7.666-5.477  c8.973-6.621,27.096-22.73,32.171-32.66c7.167-14.024,14.334-28.048,21.501-42.071c4.767-9.327,8.409-21.896,9.46-32.318  c0.751-7.445-1.555-14.164-9.035-13.948c-5.065,0.146-8.6,4.884-11.386,9.116C81.791,162.748,53.764,202.521,43.764,238.396z"/>
<linearGradient id="SVGID_4_-i14" gradientUnits="userSpaceOnUse" x1="143.1739" y1="298.3113" x2="45.1739" y2="372.978">
	<stop offset="0" style="stop-color:#23286B"/>
	<stop offset="1" style="stop-color:#151A4F"/>
</linearGradient>
<path fill="url(#SVGID_4_-i14)" d="M73.425,350.825c-2.375,12.208,0.585,24.95-1.536,37.204c-3.215,18.578-17.883,35.326-14.759,53.92  c15.459-2.677,32.552-1.199,46.716-2.199c-2.8-75.738,42.908-144.577,45.669-220.317c-16.5,2.838-28.375,3.463-46.946-1.66  c-17.409,28.236-3.555,66.068-14.506,97.38C83.81,327.315,75.885,338.178,73.425,350.825z"/>
<path fill="#E94A47" d="M46.911,322.608l-40.844-3.573c-1.651-0.144-2.872-1.6-2.727-3.25l5.36-61.266  c0.144-1.651,1.6-2.872,3.25-2.727l40.844,3.573c1.651,0.144,2.872,1.6,2.727,3.25l-5.36,61.266  C50.017,321.532,48.562,322.753,46.911,322.608z"/>
<path fill="#5196FC" d="M140.966,134.173c-3.487-1.912-4.95-3.037-8.887-6.187c-2.152-1.721-4.993-4.524-6.985-6.428  c-1.677-1.603-3.341-3.218-4.994-4.846c2.028-1.997,3.362-4.938,4.455-7.566c3.262,3.487,4.556,4.551,8.423,6.691  c1.527,0.845,9.031,4.42,10.41,3.35C142.664,124.227,141.251,129.091,140.966,134.173z"/>
<path fill="#FFBEB6" d="M147.08,82.691c-2.478,1.019-3.627,4.405-2.28,6.721c1.333-1.635,2.984-3.011,4.833-4.027  C148.898,84.387,148.038,83.479,147.08,82.691z"/>
<g>
	<path fill="#23286B" d="M137.179,71.747c-1.187,0-2.652-0.341-4.127-0.96c-1.382-0.581-2.601-1.337-3.432-2.132   c-0.948-0.906-1.306-1.798-1.006-2.51c0.2-0.476,0.76-1.042,2.293-1.042c1.187,0,2.652,0.341,4.127,0.96   c1.382,0.581,2.601,1.337,3.432,2.132c0.948,0.906,1.306,1.798,1.006,2.51C139.272,71.18,138.712,71.747,137.179,71.747z    M130.907,66.102c-0.878,0-1.284,0.222-1.372,0.43c-0.091,0.217,0.057,0.713,0.775,1.4c0.745,0.712,1.855,1.398,3.127,1.933   c1.336,0.561,2.699,0.882,3.741,0.882c0.878,0,1.284-0.222,1.372-0.43c0.091-0.217-0.058-0.713-0.775-1.4   c-0.745-0.712-1.855-1.398-3.127-1.933C133.311,66.424,131.948,66.102,130.907,66.102z"/>
</g>
<g>
	<path fill="#23286B" d="M122.742,71.894c-0.14,0-0.28-0.059-0.379-0.174c-0.18-0.209-0.157-0.525,0.053-0.705   c0.875-0.753,1.945-1.609,3.079-2.515c1.161-0.928,2.399-1.918,3.59-2.927c0.21-0.179,0.527-0.152,0.705,0.058   c0.179,0.211,0.152,0.526-0.058,0.705c-1.198,1.015-2.445,2.012-3.612,2.945c-1.126,0.9-2.189,1.75-3.051,2.491   C122.974,71.855,122.858,71.894,122.742,71.894z"/>
</g>
<path fill="#5196FC" d="M143.389,119.355c0.045,0.238,0.357,0.561,0.501,0.756c2.382,3.217,4.764,6.434,7.145,9.651  c-0.062-7.296-1.475-16.273-6.162-21.865c0.031,2.984-0.186,7.274-1.068,10.333C143.734,118.479,143.341,119.1,143.389,119.355z"/>
<rect x="10.53" y="262.959" transform="matrix(0.9962 0.0872 -0.0872 0.9962 25.4487 -1.4539)" fill="#FFFFFF" width="37.69" height="55.5"/>
<rect x="17.528" y="316.933" transform="matrix(0.9962 0.0872 -0.0872 0.9962 28.0332 -1.2017)" fill="#23286B" width="20.5" height="7"/>
<linearGradient id="SVGID_5_-i14" gradientUnits="userSpaceOnUse" x1="33.9968" y1="253.4086" x2="34.6787" y2="271.3076">
	<stop offset="0" style="stop-color:#FFBEB6"/>
	<stop offset="1" style="stop-color:#F2A19C"/>
</linearGradient>
<path fill="url(#SVGID_5_-i14)" d="M29.295,259.41c-0.037,1.684-0.809,3.388-0.426,5.029c0.383,1.641,0.302,2.561,1.705,3.495  c0.256,0.171,1.729,0.477,2.036,0.453c0.63-0.049,0.958-0.762,1.121-1.373c0.598-2.24,1.097-4.798,0.763-7.092  c-0.519,2.925-0.581,6.185,0.49,8.955c0.36,0.93,1.156,1.996,2.107,1.697c0.564-0.178,0.871-0.776,1.076-1.33  c2.272-6.153,1.865-12.983,4.764-18.867c0.794-1.611-0.396-3.732-0.727-5.498c-5.127,1.707-10.219,3.519-15.271,5.434  c-0.736,0.279-1.541,0.624-1.863,1.342c-0.178,0.396-0.176,0.846-0.172,1.28c0.036,3.413,0.073,6.825,0.109,10.238  c0.008,0.741,0.023,1.513,0.365,2.171c0.342,0.658,1.117,1.154,1.822,0.925c0.795-0.258,1.285-0.917,1.418-1.743  C28.897,262.762,29.316,261.195,29.295,259.41z"/>
<path fill="#FFBEB6" d="M49.109,248.557c0.361,0.038,1.348,1.062,1.595,1.328c0.745,0.799-2.602,3.277-3.595,3.73  c-3.101,1.413-3.031,1.65-4.148,4.868c-1.09,3.141-2.272,7.137-3.362,10.278c-1.301,3.749-2.116,11.641-4.55,11.009  c-3.89-1.009-1.411-8.639-0.868-12.622c0.628-4.605,1.78-11.72,2.031-12.841c0.446-1.997,5.708-4.374,7.686-4.899  C45.875,248.883,47.073,248.344,49.109,248.557z"/>
<g>
	
		<rect x="17.096" y="282.89" transform="matrix(0.9962 0.0872 -0.0872 0.9962 24.8623 -1.5702)" fill="#D6D7D8" width="26.634" height="2.089"/>
	
		<rect x="16.686" y="287.572" transform="matrix(0.9962 0.0872 -0.0872 0.9962 25.2688 -1.5167)" fill="#D6D7D8" width="26.634" height="2.089"/>
	
		<rect x="16.276" y="292.254" transform="matrix(0.9962 0.0872 -0.0872 0.9962 25.6753 -1.4631)" fill="#D6D7D8" width="26.634" height="2.089"/>
	
		<rect x="15.867" y="296.937" transform="matrix(0.9962 0.0872 -0.0872 0.9962 26.0818 -1.4096)" fill="#D6D7D8" width="26.634" height="2.089"/>
	
		<rect x="15.457" y="301.619" transform="matrix(0.9962 0.0872 -0.0872 0.9962 26.4883 -1.3561)" fill="#D6D7D8" width="26.634" height="2.089"/>
	
		<rect x="15.048" y="306.301" transform="matrix(0.9962 0.0872 -0.0872 0.9962 26.8949 -1.3026)" fill="#D6D7D8" width="26.634" height="2.089"/>
	
		<rect x="23.717" y="282.14" transform="matrix(0.9962 0.0872 -0.0872 0.9962 24.8024 -1.1188)" fill="#FFFFFF" width="2.993" height="2.669"/>
	
		<rect x="26.3" y="292.212" transform="matrix(0.9962 0.0872 -0.0872 0.9962 25.7033 -1.6088)" fill="#FFFFFF" width="9.95" height="2.669"/>
	
		<rect x="19.3" y="300.648" transform="matrix(0.9962 0.0872 -0.0872 0.9962 26.4028 -0.7586)" fill="#FFFFFF" width="5.177" height="2.669"/>
	
		<rect x="22.383" y="305.789" transform="matrix(0.9962 0.0872 -0.0872 0.9962 26.8626 -1.0077)" fill="#FFFFFF" width="5.177" height="2.669"/>
</g>
<path fill="none" stroke="#428DFC" stroke-miterlimit="10" d="M125.486,226.355c-1.257,14.389-11.187,27.675-24.631,32.956"/>
<path id="texture_3_-i14" opacity="0.86" fill="#FFFFFF" enable-background="new    " d="M119,140.481  c-0.149,0.088-0.21,0.326-0.122,0.476l0,0c0.088,0.15,0.326,0.211,0.475,0.123l0,0c0.149-0.088,0.21-0.326,0.122-0.476l0,0  C119.387,140.453,119.224,140.348,119,140.481L119,140.481z M92.054,160.438c-0.237-0.062-0.387,0.027-0.449,0.265  c-0.105,0.164,0.026,0.387,0.189,0.493l0,0c0.237,0.061,0.387-0.027,0.449-0.265C92.305,160.694,92.217,160.544,92.054,160.438  L92.054,160.438z M100.25,163.058c-0.237-0.061-0.387,0.027-0.449,0.265c-0.062,0.238,0.027,0.387,0.264,0.449l0,0  c0.164,0.105,0.387-0.027,0.449-0.265l0,0C100.5,163.312,100.368,163.088,100.25,163.058L100.25,163.058z M104.054,146.592  c-0.105,0.164-0.092,0.356,0.071,0.462c0.164,0.105,0.356,0.092,0.462-0.071c0.105-0.164,0.092-0.356-0.071-0.462  C104.428,146.371,104.159,146.428,104.054,146.592z M110.62,152.089c-0.105,0.164-0.092,0.356,0.071,0.462  c0.164,0.105,0.356,0.092,0.462-0.071c0.105-0.164,0.092-0.356-0.071-0.462C110.92,151.912,110.724,151.925,110.62,152.089z   M94.063,177.704c-0.194,0.013-0.299,0.177-0.285,0.37c0.013,0.194,0.177,0.299,0.37,0.285l0,0c0.194-0.013,0.298-0.176,0.33-0.296  l0,0C94.419,177.796,94.256,177.69,94.063,177.704z M109.684,140.239c-0.149,0.088-0.136,0.282-0.048,0.431  c0.088,0.15,0.282,0.136,0.43,0.048c0.149-0.088,0.136-0.282,0.048-0.431l0,0C109.952,140.181,109.834,140.15,109.684,140.239  L109.684,140.239z M115.045,145.742c-0.149,0.088-0.136,0.282-0.048,0.431c0.088,0.15,0.282,0.136,0.43,0.048  c0.149-0.088,0.136-0.282,0.048-0.431l0,0C115.344,145.566,115.151,145.579,115.045,145.742L115.045,145.742z M97.176,169.814  c-0.194,0.013-0.298,0.176-0.33,0.296c0.013,0.194,0.101,0.343,0.295,0.33l0,0c0.194-0.013,0.342-0.102,0.33-0.296l0,0  C97.501,170.025,97.412,169.875,97.176,169.814z M128.251,141.468c-0.149,0.088-0.254,0.251-0.167,0.401l0,0  c0.088,0.15,0.251,0.255,0.4,0.167l0,0c0.15-0.088,0.255-0.251,0.167-0.401l0,0C128.563,141.486,128.399,141.38,128.251,141.468z   M104.496,154.699c-0.164-0.105-0.387,0.027-0.418,0.146c-0.105,0.164-0.017,0.313,0.145,0.419c0.164,0.105,0.312,0.017,0.418-0.146  C104.748,154.954,104.615,154.729,104.496,154.699L104.496,154.699z M111.514,157.711c-0.164-0.105-0.312-0.017-0.418,0.146l0,0  c-0.105,0.164-0.017,0.313,0.145,0.419c0.164,0.105,0.312,0.017,0.418-0.146C111.765,157.966,111.677,157.816,111.514,157.711  L111.514,157.711z M124.369,141.04c-0.075,0.044-0.062,0.238-0.017,0.313l0,0c0.044,0.075,0.237,0.062,0.312,0.017l0,0  c0.075-0.044,0.062-0.238,0.017-0.313l0,0C124.593,140.907,124.519,140.951,124.369,141.04L124.369,141.04z M115.777,160.839  c-0.119-0.03-0.149,0.088-0.18,0.207l0,0c-0.031,0.119,0.132,0.225,0.207,0.18c0.119,0.03,0.224-0.133,0.18-0.207  C116.013,160.901,115.895,160.87,115.777,160.839L115.777,160.839L115.777,160.839z M135.023,137.566  c-0.075,0.044-0.18,0.207-0.136,0.282l0,0c0.044,0.075,0.207,0.18,0.282,0.136c0.075-0.044,0.18-0.207,0.136-0.282l0,0  C135.216,137.552,135.097,137.522,135.023,137.566L135.023,137.566z M101.798,138.144c-0.164-0.105-0.387,0.027-0.493,0.19  c-0.105,0.164,0.026,0.387,0.189,0.493c0.164,0.105,0.387-0.027,0.493-0.19C102.092,138.473,101.961,138.249,101.798,138.144z   M109.972,141.581c-0.164-0.105-0.387,0.027-0.493,0.19c-0.105,0.164,0.026,0.387,0.189,0.493c0.164,0.105,0.387-0.027,0.493-0.19  C110.223,141.836,110.135,141.686,109.972,141.581L109.972,141.581z M118.102,144.944c-0.164-0.105-0.387,0.027-0.493,0.19  c-0.105,0.164,0.026,0.387,0.189,0.493c0.164,0.105,0.387-0.027,0.493-0.19C118.398,145.274,118.265,145.049,118.102,144.944z   M127.595,137.62c-0.105,0.164-0.167,0.401-0.004,0.506c0.164,0.105,0.4,0.167,0.505,0.004c0.105-0.164,0.167-0.401,0.004-0.506  C127.939,137.518,127.7,137.457,127.595,137.62L127.595,137.62z M102.03,156.157c-0.194,0.013-0.374,0.221-0.36,0.415  c0.013,0.194,0.22,0.374,0.414,0.36c0.194-0.013,0.418-0.146,0.404-0.34l0,0C102.43,156.323,102.267,156.218,102.03,156.157  L102.03,156.157L102.03,156.157z M110.901,156.158c-0.194,0.013-0.418,0.146-0.36,0.415l0,0c0.013,0.194,0.177,0.299,0.339,0.405  l0,0c0.194-0.013,0.418-0.146,0.404-0.34C111.301,156.323,111.138,156.219,110.901,156.158L110.901,156.158z M133.842,136.247  c-0.105,0.164-0.167,0.401-0.004,0.506c0.164,0.105,0.4,0.167,0.505,0.004c0.149-0.088,0.21-0.326,0.004-0.506l0,0  C134.26,136.101,134.022,136.04,133.842,136.247L133.842,136.247z M100.572,150.263c-0.194,0.013-0.418,0.146-0.404,0.34  c0.014,0.194,0.145,0.419,0.339,0.405c0.194-0.013,0.342-0.102,0.404-0.34C100.898,150.473,100.766,150.249,100.572,150.263  L100.572,150.263z M109.395,150.694c-0.194,0.013-0.418,0.146-0.404,0.34c0.013,0.194,0.102,0.344,0.339,0.405  c0.194-0.013,0.418-0.146,0.404-0.34C109.677,150.831,109.588,150.681,109.395,150.694z M118.173,151.053  c-0.194,0.013-0.418,0.146-0.404,0.34c0.013,0.194,0.145,0.419,0.339,0.405c0.194-0.013,0.418-0.146,0.404-0.34l0,0  C118.575,151.219,118.367,151.039,118.173,151.053L118.173,151.053z M117.655,137.343c-0.164-0.105-0.387,0.027-0.493,0.19l0,0  c-0.105,0.164,0.026,0.387,0.189,0.493c0.164,0.105,0.387-0.027,0.493-0.19C117.906,137.599,117.818,137.449,117.655,137.343  L117.655,137.343z M125.694,141.063c-0.164-0.105-0.387,0.027-0.493,0.19c-0.105,0.164,0.026,0.387,0.189,0.493l0,0  c0.164,0.105,0.387-0.027,0.493-0.19C125.945,141.318,125.857,141.168,125.694,141.063L125.694,141.063L125.694,141.063z   M115.307,154.057c-0.194,0.013-0.224,0.133-0.21,0.326c0.013,0.194,0.132,0.225,0.326,0.211c0.194-0.013,0.224-0.133,0.21-0.326  l0,0C115.546,154.118,115.501,154.043,115.307,154.057z M119.312,140.498c-0.119-0.03-0.269,0.058-0.298,0.176  c-0.031,0.119,0.057,0.269,0.176,0.298c0.119,0.03,0.269-0.058,0.298-0.176l0,0C119.519,140.678,119.431,140.529,119.312,140.498  L119.312,140.498L119.312,140.498z M125.761,142.032c-0.119-0.03-0.269,0.058-0.374,0.221c-0.031,0.119,0.057,0.269,0.176,0.298l0,0  c0.119,0.03,0.269-0.058,0.298-0.176l0,0C126.042,142.168,125.954,142.018,125.761,142.032L125.761,142.032L125.761,142.032z"/>

</g>
</g>

              </svg>